<svg id="Layer_1" data-name="Layer 1" xmlns="http://www.w3.org/2000/svg" xmlns:xlink="http://www.w3.org/1999/xlink" viewBox="0 0 705.36 575.48"><defs><style>.cls-1{fill:none;}.cls-2{clip-path:url(#clip-path);}.cls-3{fill:#d4dffc;}.cls-4{fill:#dfe6f8;}.cls-5{fill:#8965de;}.cls-6{fill:#7548dc;}.cls-7{fill:#a784f9;}.cls-8{fill:#9876eb;}.cls-9{fill:#5b32b7;}.cls-10{fill:#463089;}.cls-11{fill:#fbba56;}.cls-12{fill:#f969b6;}.cls-13{fill:#754fca;}.cls-14{fill:#f84e9c;}.cls-15{fill:#e0e0e0;}.cls-16{fill:#a7bbfa;}.cls-17{fill:#575757;}.cls-18{fill:#f1f7fc;}.cls-19{fill:#e7effb;}.cls-20{fill:#6d7ef7;}.cls-21{fill:#fcfcfc;}.cls-22{fill:#9eabf8;}</style><clipPath id="clip-path" transform="translate(-31.91 -33.37)"><rect class="cls-1" x="-115.24" y="-31.04" width="999.88" height="704"/></clipPath></defs><title>AdobeStock_462533410_Preview</title><g class="cls-2"><path class="cls-3" d="M130.63,447c-2.3.23-4-1.21-5.95-2.07l-3-4,.12-7.17c3.19-2.39,5-5.21,2.89-9.24-1.28-2.1-.18-5.3-3.08-6.64a159,159,0,0,0,9.47-15.43c.88-1.72,2.79-2.19,4.56-2.67l3.23.19c1.64-.43,2.27-1.07.45-2.2V395c1-.4,1-.79,0-1.18l-.15-18.64c2.82-2.34,1-5.52,1.51-8.27.19-1.29-.07-3,.65-3.82,5.52-6.3,8.77-14.05,13.31-21,2.9-4.4,8.44-8.58,5.16-15.54-1-2.1.44-4.54,2.1-6.35a23.77,23.77,0,0,1,8.91-6.19c-.86,1.8.76,3.21.75,4.88-4.31-.77-4.89,1.43-3.89,4.88-1.48,1.85-4.38,2.63-4.26,5.94,4.41.5,7.05-3.07,10.48-4.67,6.05-2.81,11.41-6.94,17.74-9.23.33,1.86,1,3.91,3.17,3.42,1.65-.37.66-2.55.86-3.91a16.56,16.56,0,0,0,0-2.44h0a2.1,2.1,0,0,0,2.06-1l.39,0h.38c6.8-1,6.53,4.2,7.45,8.38l-.18-.25-1,1.36a4.11,4.11,0,0,1-4,1.64l-2.31-1.6c-.28,1.56-1.41,3-.54,4.7-.41,3.79-3.31,6.76-3.2,10.83.16,5.84,2.08,7.32,7.2,4.8,2.38-1.17,4.67-2.49,7-3.8q17-9.63,34-19.28c1.3.46,1.2,1.36.66,2.3-1.33,2.36-2.71,4.7-4.07,7.05l-.89,1,0,0a271.41,271.41,0,0,0-31.19,17.82c1.77,1.16,2.29.28,3-.07,8.13-4.09,15.42-9.75,24-12.91.18,2,.14,3.7,3.1,1.91,4.18-2.52,8.31-5.34,13.36-6.16-5.36,4.21-10.86,8.11-17.33,10.42-.36-.69-.7-.66-1,0l.06,0c-4,.26-6.62,3.06-9.46,5.69l5.36-1.78c.88,3.37-2.74,4.2-3.71,6.6-3.42,8.46-9,15.72-13.72,23.43-9.07,14.75-18.31,29.38-27.47,44.08-.45.71-.75,1.51.22,2.12L163.11,432.3c-3.66-1.65-7.39-2.83-11.51-2.4-2,.21-3.77-.37-3.86-2.8-.1-2.71,1.77-3.22,4-3.21,3.31,0,6.63-.21,9.8,1.11,1.18.49,2.51,1.27,3.58-.23.94-1.32.2-2.54-.4-3.71a11.05,11.05,0,0,0-12.56-5.72c-3.65,1-7.18,2.48-10.79,3.65-1.16.38-2.07,1.6-1.51,2.06,2.33,1.95.24,4.8,1.05,6.09,2,3.22,1.09,5.37,0,8.56-1.76,5.18-1.3,10.86-.38,16.33-5.48-1.13-6.13-5.57-6.83-10-.46-3.8.53-7.77-1.29-12.31-2.79,3.68-3.8,6.87-2.59,10.62-.49,2.29.42,4.37.94,6.51Zm28.91-32.9c-2.69-5.69-7.83-10.26-10.37-9.72-3.47.73-8,5.91-8.21,9.71C147,412.8,153,410.2,159.54,414.1ZM214,350.32a51.27,51.27,0,0,0-16.91,9.61C200.88,359.46,211.32,353.51,214,350.32Zm7.18-3.85c-1.93.38-4,.54-5.74,3.86C218.25,349,220.18,348.64,221.15,346.47Z" transform="translate(-31.91 -33.37)"/><path class="cls-4" d="M140.83,473.73c8.12-6.26,16.92-10.09,25.13-14.87,18.78-10.93,37.71-21.61,56.55-32.44,17-9.75,34-19.37,50.75-29.48,4.4-2.66,9.19-4.55,13.41-7.48,2.15-1.49,4.46-2.06,7-.54,10.91,6.53,21.85,13,33.24,19.73-8.75,6.74-18.27,10.76-27,16.06C284.44,434.1,268.68,443,253,452c-8.34,4.77-17,8.94-25.2,14-11.57,7.14-23.35,13.89-35.18,20.57-1.14.65-2.61.92-3.49,1.8-7.88,7.84-15.38,5.87-23.6.12C157.81,483.11,149.38,478.78,140.83,473.73Z" transform="translate(-31.91 -33.37)"/><path class="cls-4" d="M434,390c6.22-3.44,11.11-.34,16.4,2.78,16.11,9.51,32.49,18.57,48.67,28q41.12,23.88,82.13,47.95a60.42,60.42,0,0,0,5.78,2.95c3.17,1.4,2.18,2.78,0,4.06-10,5.87-20,11.66-30,17.56-2.51,1.48-4.4,1.44-7.23-.06-18.33-9.74-35.81-20.91-53.88-31.07-16.71-9.41-33.41-18.83-49.78-28.84-2.38-1.46-5.15-2.29-7.74-3.41-1.42-9.39-2.57-18.84-5.08-28C436.2,398,433.07,393.88,434,390Z" transform="translate(-31.91 -33.37)"/><path class="cls-5" d="M550.56,291.17c14,8,28.06,15.68,41.78,24,7.34,4.46,11.2,11.59,11.42,20.36.08,3.14-.13,6.29-.21,9.43-1.58,4.49-5.36,2.58-8.93,2.49,1.06,1.94,4.22,3.17,2.4,4.62s-1.35,3.39-2.41,4.81c-3.2-4.74-9.56-4.36-13.36-8.34-2.2-2.29-3.86-1.8-3.78,2,.13,6.47-.18,12.94-.3,19.4a2,2,0,0,0-1.52,1.54l.18.05c-.08.66.08,1.59-.28,1.9-.84.71-.81-.41-1.15-.8-3.14-3.47-2.76-9.34-7.84-11.49,4.41-.37,5.89-3.27,6-7.16.12-4.31.07-8.64.07-13,0-6.66-.95-7.76-8-9.08,0,5.51,0,11,0,16.48,0,1.35,0,2.78-1.53,3.37s-2.61-.24-3.68-1c-2.79-2.07-3.55-5.1-3.59-8.37,0-4.65,0-9.31,0-14s-3.77-6.09-6.64-6.26-1,3.5-1.36,5.42c-.32,1.76.07,3.65-.09,5.47-1.15,12.77,4.1,21.81,15.7,27.21.42,2.72.46,5.47-1.79,7.39-3.5,3-6.65,6.29-10.67,8.81-3.78,2.38-9.2,2.44-11.33,7.34q-28.5-16.34-57-32.67c-3-1.73-6-3.58-9-5.37,1.54-1.12,1.11-1.84-.32-2.76-.81-.53-2.06-1.31-.92-2.79,4.88-6.32,10.67-11.46,18.24-14.35,4.55,2.87,8.48,7.27,14.71,5.93,2.84,2,3.76-2.35,6.15-1.86,7,4,7,4,7.07-4.28,0-.83,0-1.66,0-2.49.11-1.29,0-2.94,1.74-3.08a2.89,2.89,0,0,1,3,2.76,30.23,30.23,0,0,1,.24,7.94c-.82,5.83,2.11,8.41,7.72,9.74,0-3.75-.13-7.21,0-10.65.28-5.83-1.21-10.85-6-14.53.08-2.59-1.9-5.75,1.57-7.48C535.69,303.55,543.31,297.63,550.56,291.17Z" transform="translate(-31.91 -33.37)"/><path class="cls-6" d="M120.19,162.08a118.5,118.5,0,0,1-.11-23.89c1.2-10.87,6.37-20.09,16.06-25.72Q202.5,73.86,269.08,35.59c4.88-2.82,9.59-3.2,14.45.28,2.82,2,6,3.57,9,5.32-3.28,1.52-6.89,2.07-10.08,3.93q-66.31,38.54-132.7,76.95c-9.85,7.34-15,17.11-15,29.42,0,14.16,0,28.32,0,42.47-5.07.25-9.75,2-14.36,3.91a233,233,0,0,1-.14-29C122.46,166.63,122.48,164.35,120.19,162.08Z" transform="translate(-31.91 -33.37)"/><path class="cls-7" d="M149.75,122.07q66.36-38.46,132.7-76.95c3.19-1.86,6.8-2.41,10.08-3.93,6,2.52,8.16,7.16,8.11,13.48-.17,19.12-.12,38.24-.15,57.36-2.67-.64-1.59-2.82-1.84-4.45-.47-3.17,1-6.56-1-9.56-.26-8.14-.45-16.28-.78-24.42-.23-5.63-3.91-8-9.15-6a27.89,27.89,0,0,0-4,2.06c-23,13.28-46.08,26.45-69,39.94-8.43,5-17.39,9.1-25.12,15.23l-2,1c-5.15-1.15-10.82.74-15.57-2.72-.65-4.06-2.4-4.66-5.24-1.63-.76.82-1.41,1.74-2.11,2.61-1.66-.14-2.13,1.7-3.47,2.09-2.4-2.67-4.82-1.53-7.25,0C151.33,126.07,151.58,123,149.75,122.07Z" transform="translate(-31.91 -33.37)"/><path class="cls-7" d="M442.82,323.67c-.77-2.23-1.53-4.47-2.3-6.71l-.6-1.36c-.18-10.89,1.62-21.8-.16-32.68-.49-14,1.43-28,.64-42,1.22-7.79,5.12-10.3,11.6-6.66,15,8.41,29.78,17.21,44.65,25.86a1.73,1.73,0,0,0,2.06,1.83l-.07-.05c.68,5.21,2.73,10.68-3,14.63-.62.43-1.2,1.38-.22,2a2.21,2.21,0,0,0,1.81-.05,12,12,0,0,0,1.92-1.54c.95-.75,2.07-1.48,3-.23s-.08,2.15-.87,3a8.77,8.77,0,0,1-6.94,3.24c-1.39,0-3.72-.39-3.53,1.61.61,6.39-3.59,9.39-8,12.39a27.16,27.16,0,0,0-.25-3.94c-.64-3.09-3.56-4.39-5.82-4.44s-1,2.93-1.11,4.51c-.27,4.28-.2,8.57-.26,12.86l-6.78-1c0-.6,0-1.21,0-1.81,4.31-3,3.54-7.07,2.06-11.08-1.28-3.45-3.86-6.09-6.34-8.74l.68-.77c1.82-.13,3.75,2.44,5,.94,1.54-1.84-.37-4.05-1.36-5.88-2.24-4.13-6-6.62-10.1-8.57-2.53-1.2-5.29-3-7.79-.37-2.24,2.34-1.49,5.32-.44,8,1.9,4.81,5.59,8.13,9.52,11.29,2,1.62,4.43,3.24,3.8,6.5a1.18,1.18,0,0,1-1.42,1.06,7,7,0,0,1-5.45-5.32c-.93-3.45-3.66-4.49-6.35-5.78-.75-.36-1.57-.73-2.28,0s0,1.17.18,1.78c2.95,8.54,8.77,14.12,17.33,16.91.14,2,1.6,1.84,3,1.86a2.64,2.64,0,0,0,.05,1c2,4.6-.13,7.15-3.93,9.7-3.58,2.4-6.2.64-8.55-1.13-3.42-2.57-3.18-6.23-1.43-9.86.49-1,1.27-2,0-3.41-1.9,1.19-2.56,3.63-4.59,4.8-1.2.69-3.75.39-3,3.53.65,2.63,1.24,4.39,4.1,5.26,2.62.8,5,2.37,7.47,3.66.7.36,1.71.88,1.23,1.8-.32.61-1.58,1.41-2,1.22-4.42-2.24-6.39,2-9.43,3.41,2-5.11-1.38-9-2.86-13.63-2.06,3.69-4.45,7-2.16,11.2C443.69,322.7,443.09,323.28,442.82,323.67Zm33.26-43.56c-1.82,6,2.74,6.57,6.13,8.36C484.05,282.51,480,281.48,476.08,280.11Z" transform="translate(-31.91 -33.37)"/><path class="cls-8" d="M482.86,297c4.39-3,8.59-6,8-12.39-.19-2,2.14-1.63,3.53-1.61a8.77,8.77,0,0,0,6.94-3.24c.79-.87,1.72-1.87.87-3s-2.05-.52-3,.23a12,12,0,0,1-1.92,1.54,2.21,2.21,0,0,1-1.81.05c-1-.66-.4-1.61.22-2,5.7-3.95,3.65-9.42,3-14.63,18,8.6,34.78,19.23,51.92,29.29-7.25,6.46-14.87,12.38-23.62,16.74-3.47,1.73-1.49,4.89-1.57,7.48-2.22-1.82-5.53-.22-7.62-2.45,1.28-.1,3.27.09,2.47-1.91-.72-1.79-2.38-1.27-3.63,0-5.07-2.57-5.09-2.57-5.1,3.09,0,5.3,0,10.6.06,15.9-2.39-.49-3.31,3.85-6.15,1.86a13,13,0,0,0,1.44-6.6c.08-4.73-.53-9.49.61-14.17,1.47-1.07,1.5-2.13,0-3.2-.45-.88-.66-2.19-1.37-2.57a91.27,91.27,0,0,1-13-7.91c-2-1.54-4.83-1.07-6.11,2-3,7.16,2.35,18.34,9.84,20.35,1.49.4,3.05.16,2.83,2.39-.1,1,.13,2.16-1,2.6-1.75.69-2.95-.52-3.73-1.74a17,17,0,0,0-8-6.4c-.32,4,1.93,6.58,3.72,9.3-7.57,2.89-13.36,8-18.24,14.35-1.14,1.48.11,2.26.92,2.79,1.43.92,1.86,1.64.32,2.76-8.45-4.44-16.76-9.12-24.74-14.38l.25-.32.61-.84L449,330a.58.58,0,0,1-.14-.76c.67-.28,1.56-.52,1.19-1.45-.15-.39-.93-.53-1.43-.78l-.06-2c3-1.37,5-5.65,9.43-3.41.39.19,1.65-.61,2-1.22.48-.92-.53-1.44-1.23-1.8-2.46-1.29-4.85-2.86-7.47-3.66-2.86-.87-3.45-2.63-4.1-5.26-.78-3.14,1.77-2.84,3-3.53,2-1.17,2.69-3.61,4.59-4.8,1.26,1.39.48,2.41,0,3.41-1.75,3.63-2,7.29,1.43,9.86,2.35,1.77,5,3.53,8.55,1.13,3.8-2.55,5.93-5.1,3.93-9.7a2.64,2.64,0,0,1-.05-1l0,0,6.78,1a4.78,4.78,0,0,0,2.88,4.71c2.26,1.15,4.8,3.38,4.56-1.77.26-1,2.71-2,0-3Zm-10.62,40.24c-.11-.28-.15-.7-.34-.79s-.54.17-.82.28c.11.28.15.7.35.79S472,337.34,472.24,337.23Zm70.94-44.54-.82-.35c-.12.27-.39.61-.31.81s.51.25.78.37C543,293.25,543.07,293,543.18,292.69Z" transform="translate(-31.91 -33.37)"/><path class="cls-4" d="M440.4,240.9c.79,14-1.13,28-.64,42-8.21-2.5-15-7.72-22.35-11.85-18.07-10.17-35.92-20.72-53.85-31.14-1.26-.73-3.23-1-3.43-2.59s1.78-2.28,3-3c9.61-5.6,19.35-11,28.94-16.63,3-1.76,5.46-1.34,8.27.33,12.24,7.28,24.55,14.45,36.86,21.62A19.62,19.62,0,0,0,440.4,240.9Z" transform="translate(-31.91 -33.37)"/><path class="cls-9" d="M120.36,197.87c4.61-1.93,9.29-3.66,14.36-3.91l.12,37.86c.09,24.89-.82,49.78.71,74.66.61,9.79.14,19.65.14,29.48,0,2-.26,4.22,2.86,4l.51,26.93a24.55,24.55,0,0,0,.11,8.29l.15,18.64v3.92l-.45,2.2-3.23-.19c.28-13.07-1.65-26.09-1-39.18.06-1.16,0-2.32,0-3.48.11-2.75-1.1-3.41-3.72-2.83-3.36.75-6.8,1.13-10.21,1.68,0-.68,0-1.36,0-2,.13-.09.38-.22.36-.26a3.7,3.7,0,0,0-.36-.68c-.11-24.61-.27-49.21-.33-73.82C120.34,252.07,120.37,225,120.36,197.87Z" transform="translate(-31.91 -33.37)"/><path class="cls-10" d="M433.27,401.82c2.51,9.2,3.66,18.65,5.08,28a147.72,147.72,0,0,1-2.83,39.47c-.8,3.77-1.53,7.58-5.91,9a19.42,19.42,0,0,1-10.77-2.77l-5.12-4.69c-4.6-2.49-8.73.9-13.12,1.08-4-2.68-4.44-6.11-2.57-10.36,4.8-10.9,7.47-22.16,6-34.24-.62-5.1.68-10.2,1.7-15.23.45-.64,1.14-1.9,1.31-1.83,4,1.59,4.08-.39,3.57-3.5-.14-.89.92-2,1.43-3C419.34,405.55,426.09,401.38,433.27,401.82Z" transform="translate(-31.91 -33.37)"/><path class="cls-11" d="M140.56,534.11c-.39-3.46-.47-8,6.22-8.07,2.32,0,1.81-1.9,1.9-3.31.37-5.7,3.38-8,8.77-6.09,4.31,1.5,7.58,1.15,11-2.29s7.88-2.53,11.22,1c2.46,2.62,5.5,2.93,9,2,6.87-1.83,9-.27,9.62,6.68.15,1.69.41,2.81,2.42,3,4,.37,5.2,2.9,4.87,6.61a35.12,35.12,0,0,0,0,6c.33,4.16-1.4,6.44-5.64,6.28-2.68-.1-3.36,1-3.33,3.53.08,5.65-2.3,7.7-7.69,6.19-4.74-1.34-8.47-1.13-11.94,3-2.23,2.62-8.34,1.75-10.24-1.11-2.34-3.5-5.38-3.77-8.95-2.67-7.05,2.15-9.47.56-10.05-6.55-.09-1.12.2-2.93-1.17-2.93C139,545.32,140.77,539.82,140.56,534.11Z" transform="translate(-31.91 -33.37)"/><path class="cls-12" d="M447.07,191c-4.47-1.08-7.91-4.12-11.8-6.28-8.13-4.53-16.17-9.24-24.19-14a14.31,14.31,0,0,1-7.5-13.18c0-8.83,0-17.66.09-26.49.06-6.06,3-7.7,8.37-4.61q28.57,16.42,57.08,32.95c2.33,1.35,4.53,2.84,5.43,5.58-.74.52-.44.76.23.91l-.08,0c-.26,2.67-1.56,2.79-3.75,1.82-3.25-1.44-4.71.63-4.64,3.39.05,1.93-.2,2.83-2.13,3l-15.45-8.22c-12.35-8.17-25.47-15-38.48-22.09.77,2.3,2.9,2.93,4.64,3.9,11.14,6.18,21.7,13.4,33.4,18.58,4,3.62,8.89,5.78,13.33,8.69-.66,1.35,1.92,3.9-1.56,4.19-4.22-1.4-7.48-4.89-12.28-5.21l6.88,4.5c.3,1.29,1.25,1.52,2.37,1.47l1.63.86c-.64,1.15-1.25,2.69-2.87,1.32-1.91-1.62-2.53-.23-3.28,1.12l-20-11-.65,1.12,18.83,11.3a19.34,19.34,0,0,0,.48,4.27c.9,2.67-.49,3.12-2.59,3.14l.07.05Zm-32.29-37.19a8.55,8.55,0,0,0-4.91-2.76,5.79,5.79,0,0,0,4.46,3.31c2.25,2.4,5.2,3.59,8.17,4.75a33.21,33.21,0,0,0,10.85,6.16c2,2.23,4.75,3.16,7.39,4.3-1.63-2.64-4.29-3.7-6.94-4.78a33.69,33.69,0,0,0-10.91-6.09A20.29,20.29,0,0,0,414.78,153.84Zm18.65-5.74c-.28.48-.57,1-.86,1.44l28.14,16.3.87-1.45Zm-22.88,11.22c-.24.4-.47.8-.7,1.21,5.87,3.73,11.67,7.59,18.07,10.4l.66-1.15Zm18.09-12.2.7-1.21-18.67-10.8-.75,1.29Z" transform="translate(-31.91 -33.37)"/><path class="cls-13" d="M566.56,361.18c5.08,2.15,4.7,8,7.84,11.49.34.39.31,1.51,1.15.8.36-.31.2-1.24.28-1.89a2.83,2.83,0,0,1,1.43,3.38c-.09.12-.27.29-.24.34a4.21,4.21,0,0,0,.47.64c2.15,1.4,3.92,3.57,7,3.41.12-2.52.24-5.06.39-8.19a43,43,0,0,0,3.65,3.42c1.87,1.34,3.82,2.9,6.35,1.9,2.83-1.12,3.05-3.84,3.15-6.28a24.23,24.23,0,0,0-3.44-13.3c1.06-1.42.57-3.35,2.41-4.81s-1.34-2.68-2.4-4.62c3.57.09,7.35,2,8.93-2.49,0,21,.18,42,.06,63-.05,7.19-5.19,10-11.7,6.3-15.49-8.76-30.83-17.8-46.22-26.75-2-1.18-4.44-1.76-6.05-3.64,2.13-4.9,7.55-5,11.33-7.34,4-2.52,7.17-5.82,10.67-8.81,2.25-1.92,2.21-4.67,1.79-7.38Z" transform="translate(-31.91 -33.37)"/><path class="cls-4" d="M661.8,280.84c-6.23,4.64-12.92,7.2-18.94,10.92-.13.08-.37,0-.47.14-6.38,6.45-11.65,1.69-17.21-1.57-14.72-8.64-29.52-17.14-44.28-25.73-1.56-.91-3-2.09-4.46-3.12-5.11-3.49-5.12-3.51.06-6.44,5.49-3.1,11-6.06,16.47-9.27,3.19-1.88,5.78-1.82,9.18.09,16.71,9.36,32.74,19.92,49.9,28.51C655.27,276,658.12,278.37,661.8,280.84Z" transform="translate(-31.91 -33.37)"/><path class="cls-4" d="M729.2,400.31c0,1.75-1.38,2.16-2.28,2.67-7.35,4.13-14.72,8.26-22.21,12.13-2.81,1.46-5.14-1-7.16-2.3-15.37-10.15-32-18.23-47.48-28.11-1.12-.71-2.27-1.37-3.4-2.07-7.36-4.64-7.37-4.65.49-8.95,4.22-2.31,8.73-4.22,12.63-7,4.57-3.24,8.18-2.42,12.64.35,9.57,6,19.51,11.33,29.28,17q12.88,7.42,25.73,14.9A13.36,13.36,0,0,1,729.2,400.31Z" transform="translate(-31.91 -33.37)"/><path class="cls-10" d="M422.67,351.34c-.53.61-1.05,1.22-1.58,1.82-2.1,2.58-1.28,5.33-.34,8s2.18,5.56,3.2,8.36c1.27,3.49.85,6.56-2.51,8.72-3.11,2-3.22,4.36-1.74,7.65,2.35,5.26-.86,10.33-6.62,10.24-5.09-.08-10.14-1.39-15.29-.93-5-1.83-7.11-5.12-5.53-10.47a10.86,10.86,0,0,0,.67-4.89c-1.05-5.51-.15-10,4.69-13.59,2.29-1.68,1.44-4.57.95-7-.55-2.74-.67-5.61,1.54-7.44,4.83-4,7.44-8.85,8.83-15,1.07-4.73,5.26-7.12,10.31-6.92,4.82.18,8,2.77,9.72,7.24,1.07,2.85.28,5.55-.89,8.18l-4.43,5.08c-.2.16-.38.33-.56.5A.45.45,0,0,0,422.67,351.34Z" transform="translate(-31.91 -33.37)"/><path class="cls-11" d="M672.61,438.7c10.75.41,17.12,6.46,21,16,2.45,6,5,11.95,5.69,18.44.59,5.72-1.43,8.83-5.74,9.63a10.29,10.29,0,0,0-5.87-3.86c0-4.26-1-8.51-.07-12.81.49-2.23-.25-4-3-4q-17,0-33.94,0c-2.33,0-3.6,1.26-3.12,3.43,1.07,4.79-.67,9.77,1.15,14.47-2,1.21-4.26,2.17-5.33,4.49-4.76-1-8.41-7.32-7.49-13.12,1.4-8.83,5.17-16.7,9.68-24.32,3-5.06,7.38-7.34,13-7.84,1.65-.14,3.28-.46,4.92-.7C666.5,440.92,669.53,440.48,672.61,438.7Z" transform="translate(-31.91 -33.37)"/><path class="cls-10" d="M686.58,487.91c2.25,1.34,4.76,1.23,7.25,1.37,8.63.5,10.63,3.64,7.25,11.35a14.64,14.64,0,0,1,6.59,3.27c1.27,5.25-.06,7.36-5.43,7.86a39.49,39.49,0,0,1-16.49-1.91c1.12-.28,2.25-.5,3.34-.85a3.35,3.35,0,0,0,2.58-3.71,4,4,0,0,0-2.78-3.71c-8.9-3.48-10.77-2.55-13.36,6.72a13.77,13.77,0,0,0-.29,1.45c-6.68,2.48-13.37-.28-20,0-4-1.6-8.11-2.21-12.32-3.08-.15,3.14,2.94,2.64,3.9,4.25a30.4,30.4,0,0,1-14,1.6c-2.67-.24-5.57-.92-6-4.25-.36-3.11,1.71-5,4.43-5.86,3.36-1,1.65-2.24.43-3.59-1.57-7.12.22-9.48,7.46-10.05,2.81-.22,5.6-.67,8.4-1,1.49,0,3.06-.19,3.85,1.54a2.26,2.26,0,0,0,2.27,1.55q13.8,0,27.61,0A3.08,3.08,0,0,0,684.6,488Z" transform="translate(-31.91 -33.37)"/><path class="cls-14" d="M709.62,328.15c8,3.63,15.39,8.5,23,12.83a9.15,9.15,0,0,1,4.56,8.37c.07,8.81.1,17.63-.07,26.43-.09,4.52-1.79,5.49-5.63,3.25-16.66-9.66-33.26-19.44-49.88-29.17-.46-3,.87-4.29,3.87-3.87,1.25.81,2.46,1.68,3.74,2.44,2.84,1.68,5.88,2.67,8.86.61s3.52-5.12,3.29-8.38a63,63,0,0,0-1.07-6.36c2.08-1.52,4.15-3.14,6.83-3.3C709.13,330.88,709.65,329.83,709.62,328.15Zm9.53,14.22,1.19.83a11.27,11.27,0,0,0,5.1,2.92c.53.52,1,1.24,1.87.45L726,345.43a11.27,11.27,0,0,0-5.08-2.85l-1.2-.81c-.49-.8-1.3-.83-2.1-.9a2.58,2.58,0,0,0-2.58-1.65,1,1,0,0,0-.19.79c.45,1,1.45,1.09,2.39,1.24Zm6.27,24.76c.41.62,1.21,1.05,1.57.46.47-.78-.66-.73-1.07-1.06-1-.81-1.91-1.69-3.31-1.61-1.06-1.91-3-2.48-4.84-3.19-.8-.74-1.48-1.73-3-1.34.18,1.53,1.48,1.6,2.44,2,1.58,1.2,3,2.63,5.21,2.7A4,4,0,0,0,725.42,367.13ZM716,353.54l-1.31-.67a8.85,8.85,0,0,0-4.92-3.11,7.91,7.91,0,0,0-5.45-2.55c1.42,2.18,3.18,2.65,4.84,3.26a8.84,8.84,0,0,0,5.07,2.81l1.17.86c.8.73,2.07,2.2,2.66,1.22C718.9,353.91,716.91,354,716,353.54Zm-9,2c-.68-.47-1.32-1.93-2.16-.69-.49.73.76,1.15,1.51,1.39a7,7,0,0,0,3.88,2.12c.83.53,1.77,2.23,2.52,1.11s-1-1.41-1.91-1.78A7.18,7.18,0,0,0,707,355.53Zm21.45-.41c1.05,1,2.06,2.06,3.82,1.88-.28-2-2.07-1.91-3.26-2.56-1.83-1.49-3.72-2.86-6.24-3A11.54,11.54,0,0,0,728.43,355.12Zm-.31,6.2c.73,2,2.41,1.91,4.4,2.25-1-1.93-2.42-2.32-3.79-2.78a13.13,13.13,0,0,0-6.75-3.32A12.71,12.71,0,0,0,728.12,361.32ZM708.8,342.71c-1.11-1-2.17-2.18-4-2,.23,2.2,2.09,2.14,3.4,2.77,4.13,2.82,8.19,5.78,13.17,6.95A54.34,54.34,0,0,0,708.8,342.71Z" transform="translate(-31.91 -33.37)"/><path class="cls-4" d="M424.66,503.91c4.95-.46,9.07,1.87,13.11,4.15,3.69,2.09,3.83,4.74.6,7.54-3.52,3.07-8,4-12.35,5-17.14,3.62-34.25,3-51.31-.66a25.69,25.69,0,0,1-8.58-3.93c-3-2-3.54-4.75-.58-7.42a10.33,10.33,0,0,1,3.3-2.17c6.9-2.42,13.87-4.57,21.3-4.51,1.87,2.7,1.79-1.72,3.58-.54-.06,3.67,2.94,5.07,6.11,6.26.89.33,2,.8,2.76-.06s-.2-1.74-.79-2.48c-1-1.25-2.57-2.16-2.42-4.09,6.11-.31,12.1,1.6,18.22.93,0,3-.91,6,.51,9.06,1.39-.54,1-4.26,3.67-1.26s6.25,2.19,10,.75C429.5,507.34,424.85,508.1,424.66,503.91Z" transform="translate(-31.91 -33.37)"/><path class="cls-14" d="M43.72,265.61c-13.92-5.67-13.16-13.72-9.62-24.5a34.81,34.81,0,0,1,11.69-16.45c6.07-4.82,10.71-5.14,17.35-1.34.44.25.85.53,1.3.74,12.33,5.66,12.62,12.68,9,23.68-2.15,6.42-5.59,12.38-11.5,16.39l-2.37-1.59c2.68-3-1-3.36-2-4.83q6-11.49,12-23c-5.26,4.66-8.52,10.59-11.66,16.55-1.23,2.32-2.66,3.16-5.11,2.49.38-5,1-10,0-15.06-.19-1,0-2.12-1.19-2.47s-1.72.71-2.28,1.5C43.25,246.2,39.92,255.2,43.72,265.61Z" transform="translate(-31.91 -33.37)"/><path class="cls-11" d="M397.79,395.21c5.15-.46,10.2.85,15.29.93,5.76.09,9-5,6.62-10.24-1.48-3.29-1.37-5.65,1.74-7.65,3.36-2.16,3.78-5.23,2.51-8.72-1-2.8-2.21-5.54-3.2-8.36s-1.76-5.43.34-8c.71,1.1,1.45,2.19,2.14,3.29,2.39,3.79,5.25,3.54,8.14.23,7.7-8.84,8.85-19.95,11.35-30.63,2.24-.37,3.64,1.77,5.71,1.91.15.41.31.83.47,1.25a.57.57,0,0,0,.15.76l.15,1.14-.25.32a32.73,32.73,0,0,0-.34,4.92c.73,9.91-2.94,18.55-8,26.59-5.3,8.35-6.19,17.58-6.57,27-.93,3.91,2.2,8.07-.73,11.85-7.18-.44-13.93,3.73-21.24,2-1.38-7-1.94-7.25-6.47-3.36C402.19,399.86,400.71,396.46,397.79,395.21Z" transform="translate(-31.91 -33.37)"/><path class="cls-11" d="M417,585.6c13.75-8.53,27.54-17,42.09-24.13l10.61,6.42.12,1c0,1.67-.07,3.33-.1,5-.47.65-.79,1.55-1.42,1.91Q448.22,587.44,428,599c.76-5.74-1.82-9.25-7.2-11.08A19.89,19.89,0,0,1,417,585.6Z" transform="translate(-31.91 -33.37)"/><path class="cls-3" d="M79.51,389.19c4.14-.87,7.27,3.75,12,2.14-2.46-3.11-5.89-2.66-8.83-3.4-.34-2.34-.67-4.68-1-7,2.82,1,5.61,2.07,8.48,2.86,1.17.33,2.89.61,3.29-1.22.28-1.31-.77-2.15-1.91-2.59q-3.48-1.35-7-2.56c-7.28-2.51-9.3-5.41-8.84-12.9.08-1.25-.43-2.92,1.4-3.28,1.53-.31,2.47.93,3.13,2.06a27,27,0,0,0,6.41,6.92c1.83,1.52,4.17,2.76,6,.09,1.72-2.44-.21-4-2-5.29-3.36-2.57-7.09-5.22-5.79-10.09,1.55-5.77,6-9.47,11-12.38,1.92-1.12,2.79,1.07,3.84,2.26-2.39,6.45-1.85,13.39-.54,19.57a34.51,34.51,0,0,1,.58,12.25c-.8,6.19,2,11.86,3.78,17.64-3.68,1.84-8.46,1.59-11,5.73-1.45,0-3-.48-4.1,1l-2.7-1C83.81,396.36,78.94,394.37,79.51,389.19Z" transform="translate(-31.91 -33.37)"/><path class="cls-15" d="M428,599q20.16-11.57,40.3-23.17c.63-.36.95-1.26,1.42-1.91l1.84-1c2.19.5,3.46-1.12,5-2.14a21.07,21.07,0,0,0,7.85,2.43,56.28,56.28,0,0,0,7.22,1.27c11.36.55,22.43-.27,31.86-7.75,3.24-2.51,6.58-5,7.24-9.43.41-2.76.53-5.56.78-8.34,4.36,11.44-.44,22.47-11.26,27-13.23,5.53-26.52,6.23-40.1,1.69-1.29-.44-2.37-.8-3.74,0q-23.9,14.18-47.85,28.23c-3.28,1.93-6.56,3.8-10.7,2.64-3.69-1-6-2.82-5.06-7C418.41,603.81,423.54,603.37,428,599Z" transform="translate(-31.91 -33.37)"/><path class="cls-10" d="M120.75,356c3.41-.55,6.85-.93,10.21-1.68,2.62-.58,3.83.08,3.72,2.83,0,1.16.06,2.32,0,3.48-.69,13.09,1.24,26.11,1,39.18-1.77.48-3.68,1-4.56,2.67a159,159,0,0,1-9.47,15.43,3.38,3.38,0,0,1-.84,0c-.24-6.33-1.93-7.23-7.69-4.06a12.34,12.34,0,0,0-1.21.83l-.21-1.6a6.93,6.93,0,0,1,5.83-2.28c2.72.29,3.32-.83,3.25-3.33-.19-6.8-.14-13.61-.19-20.42-.08-3.35,2.89-6.67.11-10.05v0c1.39-4,.69-8-.12-12Z" transform="translate(-31.91 -33.37)"/><path class="cls-9" d="M163.11,432.3l20.82-12.21c20.43-11.39,40.77-22.93,60.74-35.1l23.89-13.18c-.09,2.22,2,2.77,3.1,4.12-17.24,10-34.46,20.13-51.73,30.11q-28.08,16.23-56.24,32.3C162.76,436.39,162.2,434.42,163.11,432.3Z" transform="translate(-31.91 -33.37)"/><path class="cls-16" d="M120.66,377c2.78,3.38-.19,6.7-.11,10.05-2.55,3.18-5,6.44-9.72,6.39a55.71,55.71,0,0,0-7.24.82c-1.78-5.78-4.58-11.45-3.78-17.64a34.51,34.51,0,0,0-.58-12.25c-1.31-6.18-1.85-13.12.54-19.57a88.66,88.66,0,0,1,9,4c5.9,3.44,7.64,9.6,4.52,15.81-1.48,2.93-3.48,5.61-5.25,8.39-.5.79-1.67,1.5-.74,2.51s1.87.3,2.64-.34c2.84-2.34,6-4.93,6.48-8.51.53-4.14,2.11-2.7,4.11-1.72.81,4,1.51,8,.12,12-3.45,1.8-7.19,3.11-10.17,5.71-.78.67-2.09,1.53-1,2.8a2.08,2.08,0,0,0,2.73,0C115.66,383.27,119.3,381.25,120.66,377Z" transform="translate(-31.91 -33.37)"/><path class="cls-16" d="M163.11,432.3c-.91,2.12-.35,4.09.58,6,0,.82,0,1.64-.06,2.47-.38,9.15-1.47,10.71-10.36,11.84-4.18.54-8.69,3-12.75-.62-.92-5.47-1.38-11.15.38-16.33,1.09-3.19,2-5.34,0-8.56-.81-1.29,1.28-4.14-1.05-6.09-.56-.46.35-1.68,1.51-2.06,3.61-1.17,7.14-2.62,10.79-3.65a11.05,11.05,0,0,1,12.56,5.72c.6,1.17,1.34,2.39.4,3.71-1.07,1.5-2.4.72-3.58.23-3.17-1.32-6.49-1.1-9.8-1.11-2.22,0-4.09.5-4,3.21.09,2.43,1.88,3,3.86,2.8C155.72,429.47,159.45,430.65,163.11,432.3Z" transform="translate(-31.91 -33.37)"/><path class="cls-12" d="M238.26,527.28l-1.58-.35c-.22-.45-.5-.68-.92-.2-3.26-2.75-3.09-9.9.46-11.34,1.59-.64,2.55-1.09,2.56-2.93,0-3.75,2.64-4.33,5.47-3.74s5.28.89,7.63-1.65a4.47,4.47,0,0,1,6.35-.14c2.34,2.44,4.74,2.48,7.63,2.08,3.08-.43,5.88-.08,5.64,4.08-.17,3.08,4.33,1.86,4.2,4.79-4.81,1.86-7.32,4.86-5,10.21-.06,7-.25,7.11-9,5.48,1.54-2.05,1-4.43.93-6.69,0-1.36-1.92-2.37-2.07-1.36-.81,5.27-5.19,1.87-7.45,3.41-.83.56-2.29.77-2.48-1.12-.1-1.08-.59-2-1.89-1.54s-1,1.58-1,2.53c-.09,1.48-.14,3-.21,4.44l-1.76-.22C245.68,525,244.51,524.12,238.26,527.28Zm18.17-4.6c4.16,1,6.84-1.48,9.5-3.69,1.18-1,.73-2.39-.21-3.54-2.68-3.26-6.09-4.17-10.23-3.3C263.68,516.42,263.74,517.05,256.43,522.68Z" transform="translate(-31.91 -33.37)"/><path class="cls-3" d="M52.62,389.86c10.8-7,20-3.13,21.12,8.79-2.9,6.56,2.11,13.58-1.15,20.13-.11.22.16.62.26.94-3.72.24-6.26,2.81-9.18,4.63-5.56,3.45-12.2,2.71-15.7-1.7-.62-.79-1.35-1.54-.95-2.64s1.55-1.12,2.51-1.07a26,26,0,0,0,11.66-1.82c1.6-.69,3.68-1.58,2.88-3.9-.67-1.94-2.56-2.56-4.53-2.19-2.27.42-4.48,1.19-6.84.9Q52.66,400.89,52.62,389.86Z" transform="translate(-31.91 -33.37)"/><path class="cls-4" d="M655.19,509.75c6.68-.28,13.37,2.48,20,0l10.51.1a39.49,39.49,0,0,0,16.49,1.91c5.37-.5,6.7-2.61,5.43-7.86,2.47-.09,4.28.94,4.75,3.42s-1.45,3.82-3.43,4.85c-6.72,3.52-14.12,4.6-21.46,5.65-10.85,1.56-21.82,1.37-32.73,1a116.94,116.94,0,0,1-29.74-4.64,11.35,11.35,0,0,1-2.35-.77c-2.5-1.4-6.42-1.94-5.9-5.75s3.71-5.15,7.21-5.74c2.76-.47,5.58-.87,7.64-3.08,1.22,1.35,2.93,2.58-.43,3.59-2.72.82-4.79,2.75-4.43,5.86.39,3.33,3.29,4,6,4.25a30.4,30.4,0,0,0,14-1.6Z" transform="translate(-31.91 -33.37)"/><path class="cls-14" d="M448.55,192c2.1,0,3.49-.47,2.59-3.14a19.34,19.34,0,0,1-.48-4.27c3.58,1.43,6.45,4.35,11.19,5.37-2.91-3.56-6.58-4.53-9.34-6.76.75-1.35,1.37-2.74,3.28-1.12,1.62,1.37,2.23-.17,2.87-1.32l12.39,6.7.58-1.09-11.57-7.23c3.48-.29.9-2.84,1.56-4.19l9.4,4.85.45-.92-7.29-4.79c1.93-.17,2.18-1.07,2.13-3-.07-2.76,1.39-4.83,4.64-3.39,2.19,1,3.49.85,3.75-1.82,2.47,2.07,2.33,5,2.38,7.77q.19,12.44,0,24.86c-.14,7.31-2.74,8.78-8.94,5.17C461.56,199.89,455.07,195.93,448.55,192Zm21.52-21.67c.11-.06.28-.1.32-.2s0-.26,0-.4l-.5.27Z" transform="translate(-31.91 -33.37)"/><path class="cls-16" d="M72.85,419.72c-.1-.32-.37-.72-.26-.94,3.26-6.55-1.75-13.57,1.15-20.13a8.8,8.8,0,0,1,.89,2.24c.2,2,.23,4.77,2.58,4.4s1.72-3.36,1.42-5.2c-.61-3.71-.9-7.65-5.64-10.9h6.53c-.58,5.18,4.29,7.17,6.32,10.82-.42,3.41-2.74,6.88.41,10.38A16.08,16.08,0,0,0,88.54,401c1.09-1.47,2.65-1,4.1-1,3.62,5.65,4,11.1-.88,16.34a15.86,15.86,0,0,0-1.92,3.46l-.78,1.2c-1.12,3.78-2.15,7.59-3.38,11.33C83.87,437.8,79.22,436.94,75,437c-2.8,0-4.46-1-4.2-4l-.06.05c.88.06,1.69,0,2-1l0,0a4.1,4.1,0,0,0,3.55-1.07c1-.94,3-1.72,2-3.29-.86-1.37-2.21.46-3.41.5-1.82,0-2.45-2.44-4.4-2.21,1.1-1.16,2.22-2.31,3.29-3.49C74.93,421.06,74.61,420.15,72.85,419.72Z" transform="translate(-31.91 -33.37)"/><path class="cls-13" d="M671.49,204.05c2.36,1.63,2.62,4.14,2.63,6.64,0,10.46.07,20.93,0,31.39-.05,4.51-1.3,5.28-5,3.14-8.19-4.72-16.29-9.6-24.43-14.41L643.5,230v0c.68-1.29,1.43-2.53.62-4.09-.93-1.79-.25-3.1,1.45-4,2.56,1.37,5.13,2.74,7.69,4.13.86.48,1.79,1.22,2.72.55s.87-2.07.63-3.19c-.36-1.72-1.65-2.79-3-3.78l1-1.73h0c2.54-1.49,3.86,1.78,6.6,1.63-1.13-1.88-4.23-3.14-1.7-5.61,1.43,2.67,4.13,3.74,6.55,5.16,1,.57,2,1.42,3.12.29.91-1,.59-2.21.26-3.31-.88-2.9-4-3.3-5.84-5.13ZM669.61,232c0-2.58-6.6-7.95-8.91-7.19-1.21.4-1.21,1.4-1.17,2.4.08,2.33,6.42,7.45,8.64,7C669.41,233.92,669.64,233,669.61,232Z" transform="translate(-31.91 -33.37)"/><path class="cls-12" d="M469.73,567.89l-10.61-6.42a6.28,6.28,0,0,0,2.43-6.4c-.38-2.75,0-5.59-.1-8.38-.27-7.94,3.81-12.88,10.8-15.87.8.21,1.69.75,2.38.56,3.37-1,4.18,4,7,3.23a58.82,58.82,0,0,1,33.48,1.3c2.36,1.54,5.17,2.51,6.91,4.83s4.66,4.63,2.54,8.3c-8.71-10.26-20.2-12.47-32.85-11.34-6.64.38-13,1.64-18.47,5.79-5.87,4.46-6,5.73-1.54,11.37-1.77,2.1-3.68,4.23.31,6,.87.39.69.63.31,1.36C471.33,564.05,470.57,566,469.73,567.89Zm-6.14-15.56c.42,2.94-1.63,4.74,1,6,1.08.53,2.15.37,2.54-.66C468,555.33,465.67,554.81,463.59,552.33Z" transform="translate(-31.91 -33.37)"/><path class="cls-14" d="M95.75,477l2.06-.25,1.92-.11,3,0h1.83l1.39.05,1.69,0c4.64.77,9.51-1.22,14,1.23l.36.93c-4.59,7.82-4.72,16.7-5.93,25.31-.31,2.18-1.8,3-3.62,3.58a26.13,26.13,0,0,1-10.8.93c.48-3.36,3.73-6.81-1.36-10.13,4.33-.77,7-1.9,3.1-5.54a3,3,0,0,1-.53-3.27c1.25-3.22-.63-3.75-3.12-3.8l-11.37-.15-.6-2.87a51.1,51.1,0,0,0,5.81-.08c1.69-.2,3.95-.19,4.58-2S96.82,478.17,95.75,477Z" transform="translate(-31.91 -33.37)"/><path class="cls-5" d="M659.48,214c-2.53,2.47.57,3.73,1.7,5.61-2.74.15-4.06-3.12-6.6-1.63-.24-.85.86-1.75-.08-2.56-.07-.06-.37,0-.44.14a1.57,1.57,0,0,0,.54,2.41c-.33.58-.65,1.16-1,1.74l-20.11-11.55c-.07-2.54,2.7-3.49,3.18-5.73,5.07,2.84,10.12,5.72,15.24,8.47,1.3.7,2.85,2.86,4.24,1.08,1.54-2,.26-4.13-1.56-5.61a28.39,28.39,0,0,0-3.36-2.12l-17-10.2,6.33.93.42.23-.42-.23c2.29-1.53,1.74-5.47,5.13-6.08,8.75,4.78,17.67,9.26,25.77,15.14l-7.92,7C660.42,209.58,659.16,210.71,659.48,214Z" transform="translate(-31.91 -33.37)"/><path class="cls-13" d="M271.66,375.93c-1.06-1.35-3.19-1.9-3.1-4.12v.09c1,0,1.81-.22,2.05-1.34a32.78,32.78,0,0,1,3.69-2.45c12.45-6,20.11-15.81,23.35-29.16.93-.6,1-1.26.14-2l-.29-38,.37-4,3.2.05c.41,16.37.95,32.74-.15,49.1l-.3,1.69c-2.09,9.89-7.32,17.65-16,22.93C280.44,371.34,276,373.55,271.66,375.93Z" transform="translate(-31.91 -33.37)"/><path class="cls-5" d="M301.07,295l-3.2-.05c-.07-2.82-.19-5.64-.2-8.46,0-14.17-.17-28.35,0-42.53.2-19.23-.84-38.47.62-57.69,2-1.39,1.18-3.5,1.41-5.35.39-3.3-1-6.77.93-9.92,1,10.1.43,20.22.5,30.34.2,29.57.25,59.15.33,88.72C301.43,291.75,301.2,293.4,301.07,295Z" transform="translate(-31.91 -33.37)"/><path class="cls-12" d="M685.5,346c-3-.42-4.33.83-3.87,3.87-5.87-1.85-8.39-5.76-8.14-12,.33-8,.1-15.94.16-23.91.05-5.51,1.4-6.33,6.23-3.51,10,5.83,19.83,11.78,29.74,17.69,0,1.68-.49,2.73-2.47,2.85-2.68.16-4.75,1.78-6.83,3.3-2.87-5.48-5.93-10.84-11.71-13.78-6.09-3.1-10.93-.07-11.17,6.74C677.19,334.79,681.08,340.49,685.5,346Z" transform="translate(-31.91 -33.37)"/><path class="cls-8" d="M636.7,202.44c-.48,2.24-3.25,3.19-3.18,5.73-7.77-4.45-15.51-8.95-23.35-13.29-1.37-.75-3.14-3.07-4.65-.84s.06,4.11,1.93,5.46c2.66,1.93,5.82,3.14,8.16,5.56,1.47,4.72-3.24,4.23-5.13,6.12-4.2-2.48-9.29-3.7-11.83-8.48-.06-.15-.13-.31-.2-.46a26.85,26.85,0,0,1-.11-12.32,15.11,15.11,0,0,0,8.57-4.22C617.35,190.37,626.86,196.69,636.7,202.44Z" transform="translate(-31.91 -33.37)"/><path class="cls-12" d="M43.72,265.61c-3.8-10.41-.47-19.41,5.55-27.87.56-.79,1-1.85,2.28-1.5s1,1.51,1.19,2.47c1,5,.38,10,0,15.06-.83.41-2-.17-2.83,1.29,2.51,1.07,4.56,3.1,7.62,2.65,1,1.47,4.67,1.85,2,4.83l2.37,1.59C55.49,270,51,270.33,43.72,265.61Z" transform="translate(-31.91 -33.37)"/><path class="cls-14" d="M515.08,535.91a58.82,58.82,0,0,0-33.48-1.3c-2.79.72-3.6-4.2-7-3.23-.69.19-1.58-.35-2.38-.56,15.13-8,30.45-8.07,45.94-1.12-.24.3-.47.61-.71.92l1.35.11a4.64,4.64,0,0,1,.91.06c-.12,1.42,1.65,3.53-1.57,3.8C517.11,534.67,516.11,535.45,515.08,535.91Z" transform="translate(-31.91 -33.37)"/><path class="cls-8" d="M645.72,188.91c-3.39.61-2.84,4.55-5.13,6.08h0l-6.33-.93a255.71,255.71,0,0,1-22.67-13c1.06-1.53,1.67-5,3-4.44,7,3,2.53-2.23,3-3.84A286.52,286.52,0,0,1,645.72,188.91Z" transform="translate(-31.91 -33.37)"/><path class="cls-5" d="M610.48,211.18c1.89-1.89,6.6-1.4,5.13-6.12,10.47,4.8,20.17,10.94,30,16.94-1.7.88-2.38,2.19-1.45,4,.81,1.56.06,2.8-.62,4.09C632.13,224.4,621.39,217.64,610.48,211.18Z" transform="translate(-31.91 -33.37)"/><path class="cls-7" d="M617.57,172.75c-.44,1.61,4,6.8-3,3.84-1.34-.57-2,2.91-3,4.44-2.37.06-4.12-3.87-6.91-1.08-1.12.72-1.06,1.43,0,2.12a.35.35,0,0,1,0,.49c0,1.55-.43,3.32,2,3.32l.18-.18a15.17,15.17,0,0,1-8.58,4.22v-3.74c1.72-1.43,1.75-2.88,0-4.34-.33-1.92-1.06-3.84.07-5.74,1.16-.73,1.18-1.46,0-2.19a3.14,3.14,0,0,1-.36-.93c-.15-3.23-1.84-7.31,1-9.38s5.7,1.42,8.33,2.87C610.9,168.4,614.19,170.64,617.57,172.75Z" transform="translate(-31.91 -33.37)"/><path class="cls-12" d="M88.41,485.78l11.37.15c2.49.05,4.37.58,3.12,3.8a3,3,0,0,0,.53,3.27c3.87,3.64,1.23,4.77-3.1,5.54,5.09,3.32,1.84,6.77,1.36,10.13-8.74-.22-9.93-1.1-11.37-9.22C89.52,494.92,89,490.34,88.41,485.78Z" transform="translate(-31.91 -33.37)"/><path class="cls-17" d="M515.08,535.91c1-.46,2-1.24,3.09-1.32,3.22-.27,1.45-2.38,1.57-3.8,7.43,3.78,12.29,9.22,11.79,18.14-.25,2.78-.37,5.58-.78,8.34-.66,4.43-4,6.92-7.24,9.44-5.36-1.47-6.35-4.83-2.85-9.61a6,6,0,0,0,1.48-3.58c1-1.39,2.5-2.51,2.39-4.48,2.12-3.67-.74-5.88-2.54-8.3S517.44,537.45,515.08,535.91Z" transform="translate(-31.91 -33.37)"/><path class="cls-15" d="M672.61,438.7c-3.08,1.78-6.11,2.22-9.08-.23,2.06-3.64.76-6.89-1.2-10-1.11-1.77-2.6-3.34-2.73-5.59a3.06,3.06,0,0,0,3.21-2.39c.66-2.07,2.44-3.34,4.69-2.56,2.91,1,6.3,1.74,8.35,3.75,2.69,2.63,1.51-1.47,2.58-1,.34,2.85.08,5.17-2.21,7.62C673.71,431,671.63,434.48,672.61,438.7Z" transform="translate(-31.91 -33.37)"/><path class="cls-14" d="M428,599c-4.49,4.4-9.62,4.84-15.21,2.47-4.13-6.36-2.5-12.47,4.21-15.83a20.36,20.36,0,0,0,3.8,2.28C426.21,589.72,428.79,593.23,428,599Z" transform="translate(-31.91 -33.37)"/><path class="cls-18" d="M121.68,440.93l3,4c-1.76,1.58-.73,3.72-1.07,5.58-1,5.42-4.19,7-9,4.2a5.54,5.54,0,0,0-2.75-.78c0-1.67,0-3.34,0-5,1.65,0,3.23-.43,2.65-2.37s0-4.57-2-5.92c-.52-.34-.81,1.14-1.12,1.83a.88.88,0,0,1-.56.46c-1.31-.08-2.58-.91-2-2,1.65-3.15-.44-5.71-.82-8.53a5.11,5.11,0,0,0,1.81-3.43c2.16.65,3-2,4.87-2-.08,4.18,2,7.58,4,11C117.5,440.75,117.55,440.8,121.68,440.93Zm-8.13-6.74c-.2-.95-.62-2-1.82-1.77s-1,1.49-1,2.4.21,1.81,1.27,1.64S113.58,435.36,113.55,434.19Z" transform="translate(-31.91 -33.37)"/><path class="cls-8" d="M300.6,171c-1.91,3.15-.54,6.62-.93,9.92-.23,1.85.58,4-1.4,5.35l.27-.21c-.34-6,1.23-12-.88-17.92-.25-1.38-.49-2.76-.73-4.14V156c0-.93,0-1.86-.05-2.79A81.08,81.08,0,0,0,297.1,134l.13-2.08c.32-3.72.78-7.44-.31-11.12l-.06-2.79c1.4-6.63.17-13.36.75-20,2.07,3,.57,6.39,1,9.56.25,1.63-.83,3.81,1.84,4.45Q300.55,141.53,300.6,171Z" transform="translate(-31.91 -33.37)"/><path class="cls-15" d="M400.6,471.94c4.39-.18,8.52-3.57,13.12-1.08-2.67,1.93-3.82,4.9-5.35,7.64-3.08,5.48-5,11.58-9,16.54a5.83,5.83,0,0,1-3.72-1.6C396.4,486.08,397.41,478.75,400.6,471.94Z" transform="translate(-31.91 -33.37)"/><path class="cls-15" d="M418.84,475.55a19.42,19.42,0,0,0,10.77,2.77c-3.19,5.36-3.28,11.6-4.91,17.41-.49,1.73-.75,3.52-1.11,5.28-1.94-.16-3.89-.64-5.8.14C417.69,492.6,417,484,418.84,475.55Z" transform="translate(-31.91 -33.37)"/><path class="cls-10" d="M678.43,420.66c-1.07-.47.11,3.63-2.58,1-2.05-2-5.44-2.75-8.35-3.75-2.25-.78-4,.49-4.69,2.56a3.06,3.06,0,0,1-3.21,2.39c-1.58-2.65-1.88-7.36-.17-7.7,4.45-.86,7-8.89,12.92-3.69.41.36,1.3.13,1.94.29C681.63,413.58,681.71,413.75,678.43,420.66Z" transform="translate(-31.91 -33.37)"/><path class="cls-4" d="M52.62,389.86q0,11,.08,22.07c-4,.39-6.23-1.69-7.21-5.35-.43-1.59-.67-3.23-1-4.85C42.62,392.83,43.41,391.67,52.62,389.86Z" transform="translate(-31.91 -33.37)"/><path class="cls-19" d="M102.77,476.68l-3,0c-.13-1.88-.27-3.75-.41-5.63l-.16-13.23c.54-3,1.21-6-.47-8.88,0-1.68,0-3.36,0-5,3.22-.49.94-3.84,2.62-5.26,3.24,9.73,1.75,19.57,1.63,29.33Z" transform="translate(-31.91 -33.37)"/><path class="cls-14" d="M247.48,533.24c.07-1.48.12-3,.21-4.44.06-.95-.17-2.12,1-2.53s1.79.46,1.89,1.54c.19,1.89,1.65,1.68,2.48,1.12,2.26-1.54,6.64,1.86,7.45-3.41.15-1,2,0,2.07,1.36.05,2.26.61,4.64-.93,6.69l-2,.14c-.14-.7.26-1.59-.7-2L258.7,534c-1.76,4.23-4.84,3.65-7.58,1.56C249.94,534.64,248.61,534.12,247.48,533.24Z" transform="translate(-31.91 -33.37)"/><path class="cls-10" d="M103,468c.12-9.76,1.61-19.6-1.63-29.33-1.68,1.42.6,4.77-2.62,5.26.29-6.92,1.87-14.15-4.78-19.36l1-.83c1.08,1.19,2.58,2.2,3.15,3.6,1.33,3.25,2.93,1.63,4.61.61l.13,1-.08,1c-2.35,5.41,1.52,10,2,15l.2,5q-.22,9-.47,18Z" transform="translate(-31.91 -33.37)"/><path class="cls-3" d="M70.42,425.91c2-.23,2.58,2.17,4.4,2.21L72.71,432l0,0a2.11,2.11,0,0,0-2,1l.06-.05c-5.79,3.94-8.82,3.34-15.07-3.39C61.23,429.84,65.74,427.58,70.42,425.91Z" transform="translate(-31.91 -33.37)"/><path class="cls-10" d="M395.61,493.44a5.83,5.83,0,0,0,3.72,1.6l.06,5.94c-.15,1.93,1.42,2.84,2.42,4.09.59.74,1.61,1.49.79,2.48s-1.87.39-2.76.06c-3.17-1.19-6.17-2.59-6.11-6.26-1.79-1.18-1.71,3.24-3.58.54C391.4,498.71,392.43,495.38,395.61,493.44Z" transform="translate(-31.91 -33.37)"/><path class="cls-10" d="M417.79,501.15c1.91-.78,3.86-.3,5.8-.14.35,1,.71,1.94,1.07,2.9.19,4.19,4.84,3.43,7.15,6.55-3.77,1.44-7.3,2.34-10-.75s-2.28.72-3.67,1.26c-1.42-3-.49-6.09-.51-9.06A.86.86,0,0,0,417.79,501.15Z" transform="translate(-31.91 -33.37)"/><path class="cls-11" d="M64.71,331.72c-2.79,2-1.23,4.24-.13,6.59.23.5-.94,1.52-1.14,1.19-2.36-3.84-6.71,1.95-7.95-1.28-.59-1.55,1.58-4.38-.35-6.86-.55-.71,1-2,1.85-1.3,2.1,1.78,3.86,1.82,6,.14C63.72,329.63,64.48,330.47,64.71,331.72Z" transform="translate(-31.91 -33.37)"/><path class="cls-15" d="M448.43,328c-2.07-.14-3.47-2.28-5.71-1.91,0-.79.06-1.58.1-2.38.27-.39.87-1,.76-1.16-2.29-4.21.1-7.51,2.16-11.2,1.48,4.61,4.85,8.52,2.86,13.63l.06,2C448.58,327.3,448.5,327.63,448.43,328Z" transform="translate(-31.91 -33.37)"/><path class="cls-11" d="M546.78,172.83c-2.7-4.57-4.9-2.57-7.3-1.21-.75.43-1.74-1.2-1.32-1.41,4.31-2.17-2.23-6.66,1.42-7.8,1.7-.53,4.43,1.64,6.85-.19.45-.34,1.39,1,1.16,1.16C544.39,165.78,548,169.07,546.78,172.83Z" transform="translate(-31.91 -33.37)"/><path class="cls-12" d="M95.75,477c1.07,1.15,3,2.16,2.45,3.83s-2.89,1.78-4.58,2a51.1,51.1,0,0,1-5.81.08c-1.87-.6-3.44-1.54-2.87-3.84.48-2,2.22-2.2,3.92-2.19C91.16,476.89,93.46,477,95.75,477Z" transform="translate(-31.91 -33.37)"/><path class="cls-9" d="M111.88,448.92c0,1.67,0,3.34,0,5q-2.09,11.38-4.16,22.76l-1.69.05c.32-2.25.64-4.49,1-6.74,2.05-7.53,3.61-15.13,2.78-23a5.55,5.55,0,0,1,1.08-4.08.88.88,0,0,0,.56-.46C111.55,444.61,111.71,446.76,111.88,448.92Z" transform="translate(-31.91 -33.37)"/><path class="cls-4" d="M81.69,380.91c.34,2.34.67,4.68,1,7-7-.43-8.75-3.44-7.6-13.48Z" transform="translate(-31.91 -33.37)"/><path class="cls-15" d="M405.56,400.45c4.53-3.89,5.09-3.6,6.47,3.36-.5,1-1.56,2.08-1.42,3,.51,3.11.43,5.09-3.57,3.5-.17-.07-.86,1.19-1.31,1.83C404.64,408.24,407.94,404.3,405.56,400.45Z" transform="translate(-31.91 -33.37)"/><path class="cls-15" d="M686.58,487.91l-2,0c.23-3.3-.47-6.92,3.12-9.06a10.29,10.29,0,0,1,5.87,3.86C693.29,487.23,688.42,485.51,686.58,487.91Z" transform="translate(-31.91 -33.37)"/><path class="cls-14" d="M238.26,527.28c6.25-3.16,7.42-2.26,7.46,5.74C239.63,535.11,238.76,534.44,238.26,527.28Z" transform="translate(-31.91 -33.37)"/><path class="cls-5" d="M718.58,279c3-1.9,5.48-.95,7.27,1.62a5.12,5.12,0,0,1-.76,7.17c-2.39,2.23-4.94,2.43-7.43.05l1-1,2,.76.45.15.42-.21c2.26-.89,3.78-2.41,2.86-4.94-1-2.7-3.11-3.17-5.66-2Z" transform="translate(-31.91 -33.37)"/><path class="cls-14" d="M270.72,528.09c-2.34-5.35.17-8.35,5-10.21.05,1.25.1,2.5.14,3.75l0,1.58c0,.47,0,.94,0,1.41s-.07,1-.1,1.43C274.45,527.64,272.57,527.83,270.72,528.09Z" transform="translate(-31.91 -33.37)"/><path class="cls-10" d="M129.81,440.37c-1.21-3.75-.2-6.94,2.59-10.62,1.82,4.54.83,8.51,1.29,12.31Z" transform="translate(-31.91 -33.37)"/><path class="cls-15" d="M651.37,489.29c-.79-1.73-2.36-1.53-3.85-1.54-1.25-1.24-3.68-1-4.1-3.29,1.07-2.33,3.31-3.29,5.33-4.5C651.24,482.62,650.56,486.16,651.37,489.29Z" transform="translate(-31.91 -33.37)"/><path class="cls-8" d="M89.75,179.6a4.54,4.54,0,0,1-6.25-2.2,5.59,5.59,0,0,1,.35-6.51c1.82-2.13,4.16-3.22,6.9-1.33l-.18,1.58c-2.72-.37-5.62-.67-5.89,3.11-.26,3.42,2.39,3.77,5,3.79Z" transform="translate(-31.91 -33.37)"/><path class="cls-12" d="M374.43,307.89c-2.07.85-4.81,2.8-6.13.27-1.47-2.81,0-6.29,1.67-8.87,1.09-1.66,3-1,3.73,1.1,0,.52,0,1-.07,1.57-3-2.28-2.81.44-3.47,2.14-1,2.71.29,3.13,2.51,2.91Z" transform="translate(-31.91 -33.37)"/><path class="cls-10" d="M99.16,457.8q.07,6.61.16,13.23l-1.44,1.85q0-8.94,0-17.88C98.29,455.94,98.72,456.87,99.16,457.8Z" transform="translate(-31.91 -33.37)"/><path class="cls-14" d="M373.63,302c0-.53.05-1,.07-1.57a18,18,0,0,1,2.36,1.74c1,1,2.68,1.8,2.32,3.51-.42,2-2.31,2.05-3.95,2.25-.59-.29-1.18-.58-1.76-.88l3.72-1.8Z" transform="translate(-31.91 -33.37)"/><path class="cls-13" d="M90.57,171.14l.18-1.58c4.82,3.85,4.46,7.38-1,10L89.69,178C92.58,176.07,92.58,173.73,90.57,171.14Z" transform="translate(-31.91 -33.37)"/><path class="cls-7" d="M718.67,286.89l-1,1c-3.17-3.71-2.94-5.83.92-8.84,0,.53.1,1.06.14,1.59A4.89,4.89,0,0,0,718.67,286.89Z" transform="translate(-31.91 -33.37)"/><path class="cls-11" d="M423.65,350.4l4.43-5.08C428.41,350.81,428.09,351.17,423.65,350.4Z" transform="translate(-31.91 -33.37)"/><path class="cls-13" d="M99.16,457.8c-.44-.93-.87-1.86-1.3-2.8-.11-2.08-.69-4.22.83-6.08C100.37,451.8,99.7,454.81,99.16,457.8Z" transform="translate(-31.91 -33.37)"/><path class="cls-9" d="M120.19,162.08c2.29,2.27,2.27,4.55,0,6.84Z" transform="translate(-31.91 -33.37)"/><path class="cls-10" d="M89.06,421l.78-1.2c1.9,1,3.82,2.06,5.1,3.91l-1,.83Z" transform="translate(-31.91 -33.37)"/><path class="cls-13" d="M97.88,472.88,99.32,471c.14,1.88.28,3.75.41,5.63l-1.92.11C97.83,475.47,97.85,474.18,97.88,472.88Z" transform="translate(-31.91 -33.37)"/><path class="cls-8" d="M598.36,181.84c1.73,1.46,1.7,2.91,0,4.34A4.44,4.44,0,0,1,598.36,181.84Z" transform="translate(-31.91 -33.37)"/><path class="cls-8" d="M498.71,261.93a1.73,1.73,0,0,1-2.06-1.83A2.2,2.2,0,0,1,498.71,261.93Z" transform="translate(-31.91 -33.37)"/><path class="cls-12" d="M258.7,534l.32-2.26c1,.4.56,1.29.7,2Z" transform="translate(-31.91 -33.37)"/><path class="cls-8" d="M598.44,173.91c1.17.73,1.15,1.46,0,2.19C598.43,175.37,598.44,174.64,598.44,173.91Z" transform="translate(-31.91 -33.37)"/><path class="cls-5" d="M300.62,345.83l.3-1.69C301.33,344.79,301,345.32,300.62,345.83Z" transform="translate(-31.91 -33.37)"/><path class="cls-17" d="M518.83,530.73l-1.35-.11c.24-.31.47-.62.71-.92Z" transform="translate(-31.91 -33.37)"/><path class="cls-14" d="M474.78,165.94c-.67-.15-1-.39-.23-.91A1,1,0,0,1,474.78,165.94Z" transform="translate(-31.91 -33.37)"/><path class="cls-11" d="M422.67,351.34a.45.45,0,0,1,.42-.44s0,.39,0,.39Z" transform="translate(-31.91 -33.37)"/><path class="cls-3" d="M130.75,446.88l.36.48-.48-.36Z" transform="translate(-31.91 -33.37)"/><path class="cls-4" d="M439.92,315.6l.6,1.36Z" transform="translate(-31.91 -33.37)"/><path class="cls-12" d="M275.87,523.21l0-1.58Z" transform="translate(-31.91 -33.37)"/><path class="cls-12" d="M275.76,526.05c0-.48.07-.95.1-1.43A1,1,0,0,1,275.76,526.05Z" transform="translate(-31.91 -33.37)"/><path class="cls-14" d="M447.07,191l1.55,1.05Z" transform="translate(-31.91 -33.37)"/><path class="cls-18" d="M122,478.85l-.36-.93a4.91,4.91,0,0,1,.55.57C122.27,478.54,122.11,478.72,122,478.85Z" transform="translate(-31.91 -33.37)"/><path class="cls-14" d="M235.76,526.73c.42-.48.7-.25.92.2h-.48Z" transform="translate(-31.91 -33.37)"/><path class="cls-7" d="M598.45,202.24c.07.15.14.31.2.46l-.31-.17Z" transform="translate(-31.91 -33.37)"/><path class="cls-10" d="M120.74,353a3.7,3.7,0,0,1,.36.68s-.23.17-.36.26A1.1,1.1,0,0,1,120.74,353Z" transform="translate(-31.91 -33.37)"/><path class="cls-5" d="M643.5,230l1.14.77Z" transform="translate(-31.91 -33.37)"/><path class="cls-19" d="M296.88,153.17c0,.93,0,1.86,0,2.8-4.74-1.73-7.38.21-8.66,4.81-.41,1.48-1.11,2.9.4,4.07,1.23,1,2.66,1.6,4.09.42a5.42,5.42,0,0,1,4.18-1.23c.24,1.38.48,2.76.73,4.14-1,3.71-.47,7.5-.4,11.24,0,2.22-1.31,4.89,1.28,6.68l-.27.21c-1.47,19.22-.43,38.46-.63,57.69-.14,14.18,0,28.36,0,42.53,0,2.82.13,5.64.2,8.46-.12,1.32-.24,2.65-.37,4-4.05.26-2.89,4.33-4.48,6.43-6.94,9.17-12.28,19.42-18.85,28.9-8.46,12.21-15.53,25.36-23.79,37.74-2.59,3.87-6.17,7.62-5.71,13-20,12.17-40.31,23.71-60.74,35.1-1-.61-.67-1.41-.22-2.12,9.16-14.7,18.4-29.33,27.47-44.08,4.74-7.71,10.3-15,13.72-23.43,1-2.4,4.59-3.23,3.71-6.59,1.29-1.39,3.32-2,4.1-3.92l-.06,0,1,0c6.47-2.31,12-6.21,17.33-10.42-5.05.82-9.18,3.64-13.36,6.16-3,1.79-2.92.1-3.1-1.9,1-2,4.23-2,4.16-4.85l0,0,.89-1c1.36-2.35,2.74-4.69,4.07-7.05.54-.94.64-1.84-.65-2.3,5.86-3.67,9.83-8.65,10.79-15.69.45-.17,1.13-.2,1.34-.53,4.29-6.74,9.15-13.22,12.58-20.38,2.23-4.67,7.68-8.66,5-15.07,3.57-.25,6-2.32,8.19-4.94,3.52,0,5.89-2.15,7.78-4.67,2.21-2.95,3.74-6.22.25-9.45-1.64-1.63-2.81-.25-4.34.41-4,1.75-7.29,5.14-11.88,5.72-2-2.26-3.77-.33-5.12.74-1.93,1.51-3.58.63-5-.2s-.58-2.47.13-3.49c1.93-2.8-.62-3.7-2-5.13a34.24,34.24,0,0,0,3.32-4.92c1-2.3,1.59-5.06-.26-7.07-2.2-2.4-4.24-.09-6.16,1-11.7,6.67-23.47,13.21-35,20.11-7.68,4.59-16,8.11-23,13.8a7.73,7.73,0,0,0-4.23,1.28c-8,4.69-15.63,9.91-24,14a63.8,63.8,0,0,0-8,5c-3.39,2.36-5.45,8.34-3.59,10.78,3.5,4.61,6.32.18,9.38-.95.15-.06.25-.23.39-.3,5.92-2.9,11-7.3,17.16-9.73,1.5,2.78-1.27,3.93-2.27,5.69-3.13,5.53-6.43,11-9.66,16.44-1,1.41-2.1,2.68-3.94,3a23.77,23.77,0,0,0-8.91,6.19c-1.66,1.81-3.09,4.25-2.1,6.35,3.28,7-2.26,11.14-5.16,15.54-4.54,6.92-7.79,14.67-13.31,21-.72.83-.46,2.53-.65,3.82l-1.62,0L138.55,340q.18-19.5.35-39c1,0,1.95,0,2.92-.08,1.81-.17,2.49-1.58,2.6-3,.16-2.32-1.79-1.77-3.13-1.89-.81-.07-1.62,0-2.43,0,0-1.32,0-2.65,0-4,1.79-.08,3.85.35,4.63-1.93.7-2.06-.42-3.54-2-4.64-1.4-1-2.42-2.26-1.19-3.66,1.4-1.59,2.93-.49,4.33.58,3.43,2.62,3.8,6,2.56,9.76-.26.81-.53,1.65.18,2.31s1.5.41,2.27,0a5.39,5.39,0,0,0,1-9.18c-1-.85-1.7-2.07-2.75-2.85-2.95-2.19-4.61-6.22-9-6.41l0-5c5,.65,9.54-3.18,14.65-1.61,2.1.64,2.32-.66,2.06-2.14-.22-1.3-.66-2.64-2.16-3.08-1.93-.55-3.06.77-4.29,1.92-.92.85-1.79,2.32-3.32,1.21-1.3-.94-1.14-2.2-.3-3.51,8.61-13.55,15.16-28.39,25.42-40.92.4,1.24.81,2.49,1.19,3.74,3.46,11.35,11.27,18.62,25.13,16.38,13.17-2.13,22.65-10.53,31.37-19.9,8.88-9.55,14.21-21.14,18.85-33.12,2.46-.25,3.54-2.18,4.73-3.94,3.78-5.62,6.78-11.79,11.46-16.76,3.54-3.76,4.72-8.54,6.53-13.09.42-1.06.79-2.41,2.05-2.66,1.74-.35,1.33,1.53,2,2.33.53.64,1,1.35,1.43,2s1,2,2.18,1.57.82-1.65.88-2.58c.27-4.36,1.43-7.65,6.92-6a2,2,0,0,0,2.52-1.1c.63-1.33-.76-1.56-1.34-2.25-1.57-1.9-3.88-2.44-6-3.41-1.3-.6-2.29-1.49-1.92-3.07a3.32,3.32,0,0,1,2.25-2.49c1.79-.52,2.07,1,2.62,2.22,1.36,3.12,4,5.82,7.17,5,4.73-1.16,5.06.84,4.76,4.37A3,3,0,0,0,296.88,153.17Zm-26.29,80.69c0,2.81,1.28,5.29,4.4,3.6,4.47-2.41,9.42-4.21,12.94-8.19,1.6-1.81,2.79-3.73,2.77-6.22,0-1.63.35-3.44-1.38-4.51s-3.23-.33-4.68.52c-3.15,1.86-6.38,3.61-9.35,5.72A10.35,10.35,0,0,0,270.59,233.86ZM256.21,345c1.49-.64,3.2-1.39,3-2.91-.28-2.39-2.28-4-4.42-4.7-1.47-.47-2.18,1.2-2.06,2.61A6.59,6.59,0,0,0,256.21,345Zm25.3-25.93c-.64-1.75-1.79-3-3.92-3-1.19,0-2,.67-1.69,1.86.47,1.74,1,3.75,3.24,3.88C280.68,321.87,281.52,320.81,281.51,319.08Z" transform="translate(-31.91 -33.37)"/><path class="cls-4" d="M272.67,267c2.68,6.41-2.77,10.4-5,15.07-3.43,7.16-8.29,13.64-12.58,20.38-.21.33-.89.36-1.34.53-1.58-6.23-4.65-7.49-10.44-4.08-6.82,4-13.47,8.36-20.37,12.24-5.61,3.15-10.84,7-17,9.13-.92-4.18-.65-9.42-7.45-8.38a3.47,3.47,0,0,1,1.86-2.2c17-9.67,34.08-19.26,51-29.13,5.61-3.27,12.21-5.86,13.47-13.59.2-1.23,1.55-2.62,0-3.57-1.19-.72-2.62-1.58-4.22-.82-1.05.51-2.13,1-3.14,1.54-16.71,9.58-33.34,19.3-50.13,28.74-10.84,6.09-21.17,13.11-32.54,18.25,3.23-5.47,6.53-10.91,9.66-16.44,1-1.76,3.77-2.91,2.27-5.69l3-2.83c.81-.17,1.63-.3,2-1.17v0c1.58,0,2.8-.95,4.08-1.69L260.66,246c1.37,1.43,3.92,2.33,2,5.13-.71,1-1.68,2.59-.13,3.49s3.1,1.71,5,.2c1.35-1.07,3.08-3,5.12-.74-.94,2.58-2.08,5.12-2.77,7.78C269.29,264.18,269.41,266.53,272.67,267Z" transform="translate(-31.91 -33.37)"/><path class="cls-16" d="M174.75,311.1c11.37-5.14,21.7-12.16,32.54-18.25,16.79-9.44,33.42-19.16,50.13-28.74,1-.58,2.09-1,3.14-1.54,1.6-.76,3,.1,4.22.82,1.57.95.22,2.34,0,3.57-1.26,7.73-7.86,10.32-13.47,13.59-16.91,9.87-34,19.46-51,29.13a3.47,3.47,0,0,0-1.86,2.2h-.38l-.39,0a2.27,2.27,0,0,0-2.06,1h0a5.18,5.18,0,0,0-4,2.93c-6.33,2.29-11.69,6.42-17.74,9.23-3.43,1.6-6.07,5.17-10.48,4.67-.12-3.31,2.78-4.09,4.26-5.94,3.47.1,4.41-1.81,3.89-4.88,0-1.67-1.61-3.08-.75-4.88C172.65,313.78,173.75,312.51,174.75,311.1Zm2.92,6.85c3,2.52,2.53-1.93,4.24-2.28.36-.07.08-2.72-1.13-3.29-2.21-1-1.86,1.66-2.92,2.42-1.25.9,0,2.11-.17,3.17a1.16,1.16,0,0,0-.34.14c-.06,0-.06.16-.08.25Zm19.68-12.34c-.17.53-1.23,1.75,1.05,1.74,3.49,0,3-2.64,3.6-4.84.38-1.49.41-2.19-1.29-2C198,300.87,197.58,303,197.35,305.61Zm15-11c-3.6.57-5.32,2.05-5.39,5.51,0,2,1.43,1.43,1.85,1.32C212.14,300.51,211.76,297.5,212.39,294.59Zm-23,18.79c1.33-1.83,4.16-3.09,1.84-6.05-.63-.81-1.39-1.54-2.36-.36C187.07,309.17,187,311.28,189.42,313.38Z" transform="translate(-31.91 -33.37)"/><path class="cls-20" d="M205.93,320.26c6.17-2.1,11.4-6,17-9.13,6.9-3.88,13.55-8.21,20.37-12.24,5.79-3.41,8.86-2.15,10.44,4.08-1,7-4.93,12-10.79,15.69q-17,9.64-34.06,19.28c-2.3,1.31-4.59,2.63-7,3.8-5.12,2.52-7,1-7.2-4.8-.11-4.07,2.79-7,3.2-10.83l2.85-3.1a4.11,4.11,0,0,0,4-1.64l1-1.36Zm31.68-7.21c.23,1,0,3.25,1.21,2.46,1.57-1,3.61-2.39,3.91-4.73.1-.76,0-2.12-.39-2.29-2-.86-3.13,1.15-4.71,1.81-1-1.58-2-1.79-2.69.2-.51,1.48.4,3.24-.84,4.72-1.44-.93.12-3.1-1.88-3.94-2.15,2-2.29,4.85-.34,6.26,2.14,1.57,3.75-.84,4.79-2.83C237,314.15,237.3,313.6,237.61,313.05Zm-21.27,12.7c1.06.69-.48,3.21,1.79,2.85a4.17,4.17,0,0,0,3.32-3.39c.37-1.6,1-3.59-.36-4.71-1-.87-2.35.58-3.51,1.16-1.74.87-4.54.42-4.21,3.65a5,5,0,0,0-.64-.36c-3.85-1.46-5.13-.6-4.59,3.51.13,1-1.75,4.45,1.49,3.05C212.16,330.42,215.18,328.88,216.34,325.75Z" transform="translate(-31.91 -33.37)"/><path class="cls-4" d="M118.67,437.93c-2-3.41-4.06-6.81-4-11s2.44-7.11,6.08-9a3.38,3.38,0,0,0,.84,0c2.9,1.34,1.8,4.54,3.08,6.64-3.35,2-3.9,5-3.18,8.43C118.32,433.33,122.06,437.66,118.67,437.93Z" transform="translate(-31.91 -33.37)"/><path class="cls-16" d="M159.54,414.1c-6.55-3.9-12.53-1.3-18.58,0,.25-3.8,4.74-9,8.21-9.71C151.71,403.84,156.85,408.41,159.54,414.1Z" transform="translate(-31.91 -33.37)"/><path class="cls-16" d="M238.7,329c.07,2.87-3.21,2.85-4.16,4.85-8.63,3.15-15.92,8.81-24,12.9-.69.35-1.21,1.23-3,.07A271.41,271.41,0,0,1,238.7,329Z" transform="translate(-31.91 -33.37)"/><path class="cls-16" d="M214,350.32c-2.65,3.19-13.09,9.14-16.91,9.61A51.27,51.27,0,0,1,214,350.32Z" transform="translate(-31.91 -33.37)"/><path class="cls-10" d="M121.51,433c-.72-3.48-.17-6.48,3.18-8.43,2.07,4,.3,6.85-2.89,9.24A1.28,1.28,0,0,0,121.51,433Z" transform="translate(-31.91 -33.37)"/><path class="cls-4" d="M191.63,315.87a5.18,5.18,0,0,1,4-2.93,16.56,16.56,0,0,1,0,2.44c-.2,1.36.79,3.54-.86,3.91C192.66,319.78,192,317.73,191.63,315.87Z" transform="translate(-31.91 -33.37)"/><path class="cls-19" d="M171.56,319c.52,3.07-.42,5-3.89,4.88C166.67,320.38,167.25,318.18,171.56,319Z" transform="translate(-31.91 -33.37)"/><path class="cls-21" d="M121.51,433a1.28,1.28,0,0,1,.29.81l-.12,7.17c-4.13-.13-4.18-.18-3-3C122.06,437.66,118.32,433.33,121.51,433Z" transform="translate(-31.91 -33.37)"/><path class="cls-16" d="M232.71,340c-.78,1.92-2.81,2.53-4.1,3.92-1.79.58-3.57,1.18-5.36,1.77C226.09,343,228.7,340.21,232.71,340Z" transform="translate(-31.91 -33.37)"/><path class="cls-4" d="M139.06,366.92l1.62,0c-.53,2.75,1.31,5.93-1.51,8.27A24.55,24.55,0,0,1,139.06,366.92Z" transform="translate(-31.91 -33.37)"/><path class="cls-16" d="M221.15,346.47c-1,2.17-2.9,2.55-5.74,3.86C217.17,347,219.22,346.85,221.15,346.47Z" transform="translate(-31.91 -33.37)"/><path class="cls-4" d="M200.78,323l-2.85,3.1c-.87-1.68.26-3.14.54-4.7Z" transform="translate(-31.91 -33.37)"/><path class="cls-4" d="M138.87,400l.45-2.2C141.14,398.9,140.51,399.54,138.87,400Z" transform="translate(-31.91 -33.37)"/><path class="cls-4" d="M195.65,313a2.27,2.27,0,0,1,2.06-1A2.1,2.1,0,0,1,195.65,313Z" transform="translate(-31.91 -33.37)"/><path class="cls-4" d="M205.75,320l-1,1.36Z" transform="translate(-31.91 -33.37)"/><path class="cls-16" d="M239.54,328l-.89,1Z" transform="translate(-31.91 -33.37)"/><path class="cls-4" d="M139.32,395v-1.18C140.27,394.24,140.28,394.63,139.32,395Z" transform="translate(-31.91 -33.37)"/><path class="cls-16" d="M233.67,340l-1,0C233,339.3,233.31,339.27,233.67,340Z" transform="translate(-31.91 -33.37)"/><path class="cls-18" d="M566.56,361.18l-3.13-.86c-11.6-5.41-16.85-14.45-15.7-27.22.16-1.82-.23-3.71.09-5.47.35-1.92-1.52-5.58,1.36-5.42s6.69,1.76,6.64,6.26-.08,9.31,0,14c0,3.27.8,6.3,3.59,8.37,1.07.79,2.28,1.59,3.68,1s1.53-2,1.53-3.37c0-5.49,0-11,0-16.48,7.1,1.32,8.06,2.42,8,9.08,0,4.32.05,8.65-.07,13C572.45,357.91,571,360.81,566.56,361.18Z" transform="translate(-31.91 -33.37)"/><path class="cls-21" d="M507.45,311.07c-1.14,4.68-.53,9.44-.61,14.17a13,13,0,0,1-1.44,6.6c-6.23,1.34-10.16-3.06-14.71-5.93-1.79-2.72-4-5.26-3.72-9.3a17,17,0,0,1,8,6.4c.78,1.22,2,2.43,3.73,1.74,1.11-.44.88-1.63,1-2.6.22-2.23-1.34-2-2.83-2.39-7.49-2-12.81-13.19-9.84-20.35,1.28-3.09,4.14-3.56,6.11-2a91.27,91.27,0,0,0,13,7.91c.71.38.92,1.69,1.37,2.57C507.45,308.93,507.45,310,507.45,311.07Zm-13.81-2.3c0,3,1.23,5.37,4.18,5.91,2.22.41,1.85-1.9,1.82-3.25-.06-2.73-.46-5.69-3.66-6.25C493.75,304.78,493.76,307.08,493.64,308.77Z" transform="translate(-31.91 -33.37)"/><path class="cls-18" d="M577.26,375a2.83,2.83,0,0,0-1.43-3.38l-.18-.06c1.05,0,1.35-.69,1.52-1.54.12-6.46.43-12.93.3-19.4-.08-3.82,1.58-4.31,3.78-2,3.8,4,10.16,3.6,13.36,8.34a24.23,24.23,0,0,1,3.44,13.3c-.1,2.44-.32,5.16-3.15,6.28-2.53,1-4.48-.56-6.35-1.9a43,43,0,0,1-3.65-3.42c-.15,3.13-.27,5.67-.39,8.19-3.1.16-4.87-2-7-3.41C577.41,375.61,577.34,375.29,577.26,375Zm13.45-10.84c-.28-2.6-.49-5.55-3.83-6.05-2.53-.37-2.32,1.94-2.14,3.51.31,2.83.82,6.11,4.17,6.52C591.23,368.39,590.36,365.69,590.71,364.12Z" transform="translate(-31.91 -33.37)"/><path class="cls-18" d="M511.55,330c0-5.3-.06-10.6-.06-15.9,0-5.66,0-5.66,5.1-3.09.39.65.78,1.3,1.16,1.95,2.09,2.23,5.4.63,7.62,2.45,4.81,3.68,6.3,8.7,6,14.53-.16,3.44,0,6.9,0,10.65-5.61-1.33-8.54-3.91-7.72-9.74a30.23,30.23,0,0,0-.24-7.94,2.89,2.89,0,0,0-3-2.76c-1.78.14-1.63,1.79-1.74,3.08-.06.83,0,1.66,0,2.49C518.57,334,518.57,334,511.55,330Z" transform="translate(-31.91 -33.37)"/><path class="cls-13" d="M577.17,370c-.17.85-.47,1.57-1.52,1.54A2,2,0,0,1,577.17,370Z" transform="translate(-31.91 -33.37)"/><path class="cls-8" d="M134.85,231.82q-.07-18.93-.13-37.86c0-14.15,0-28.31,0-42.47,0-12.31,5.17-22.08,15-29.42,1.83.89,1.58,4,4.25,4-1.33,2.07-2.92,4.06-3.28,6.56-.27,1.92-.64,4.16,1.65,5.2,2,.92,3.88.08,5.35-1.46,2.73-2.87,4.22-6.2,3.53-10.26,1.34-.39,1.81-2.23,3.47-2.09.13,1.84-.66,4.51,2.07,4.67a4.78,4.78,0,0,0,4.9-3.75c.16-.62.26-1.27.38-1.9,4.75,3.46,10.42,1.57,15.57,2.72-4.37,1.87-9.57,3.07-12.88,5.82-7,5.8-15.16,9.37-22.72,14C143.21,151,138.3,158,138.46,168.74c.24,15.79-.07,31.6-.14,47.4-3.36,3-.72,7-1.63,10.42C136.22,228.35,138.16,231,134.85,231.82Z" transform="translate(-31.91 -33.37)"/><path class="cls-18" d="M296.88,153.17a3,3,0,0,1-1.21-3.07c.3-3.53,0-5.53-4.76-4.37-3.19.79-5.81-1.91-7.17-5-.55-1.25-.83-2.74-2.62-2.22a3.32,3.32,0,0,0-2.25,2.49c-.37,1.58.62,2.47,1.92,3.07,2.08,1,4.39,1.51,6,3.41.58.69,2,.92,1.34,2.25a2,2,0,0,1-2.52,1.1c-5.49-1.6-6.65,1.69-6.92,6-.06.93.34,2.18-.88,2.58s-1.64-.76-2.18-1.57-.9-1.39-1.43-2c-.65-.8-.24-2.68-2-2.33-1.26.25-1.63,1.6-2.05,2.66-1.81,4.55-3,9.33-6.53,13.09-4.68,5-7.68,11.14-11.46,16.76-1.19,1.76-2.27,3.69-4.73,3.94.35-1.61.71-3.23,1-4.85,1.62-8,2.88-15.93,1.27-24.18-3.11-15.87-14.55-23-30.08-18.45a31.24,31.24,0,0,0-9.13,3.77c-13.58,7.67-22.36,19.84-30,32.84-2.38,4-5.18,8-5.86,12.91-3.19,2.58-7.76,4.23-8.75,8.5-1.21,5.3-3.91,8.1-9.19,8.68-1.22.13-2.59,1.51-3.57-.07a2.83,2.83,0,0,1,1-3.59c4.64-3.09,5.63-7.89,7.52-12.71,4.08-10.48,11.29-19.39,16.5-29.4,4.93-9.48,11.52-18.08,14.68-28.51.58-1.89.64-2.72-1.61-2.91-3.63-.31-4.41-1.86-1.89-4.78.45-.52.24-1.59.33-2.41,7.73-6.13,16.69-10.27,25.12-15.23,22.88-13.49,46-26.66,69-39.94a27.89,27.89,0,0,1,4-2.06c5.24-2,8.92.41,9.15,6,.33,8.14.52,16.28.78,24.42-.58,6.67.65,13.4-.75,20-3.63-.8-3.21,3.12-5.09,4.4-4.32,2.94-3.13,5.73.31,8.56a14.08,14.08,0,0,0,5,3A81.08,81.08,0,0,1,296.88,153.17Zm-1.34-13.55c-.62-2.2-3.26-1.86-4.39-3.51-.74-1.07-1.91-2.74-3.57-1.26-1.38,1.22-1.21,3-.54,4.57.79,1.78,2.28,3,4.32,2.42C292.84,141.46,294.66,141.44,295.54,139.62Z" transform="translate(-31.91 -33.37)"/><path class="cls-19" d="M189.61,124.79c-.09.82.12,1.89-.33,2.41-2.52,2.92-1.74,4.47,1.89,4.78,2.25.19,2.19,1,1.61,2.91-3.16,10.43-9.75,19-14.68,28.51-5.21,10-12.42,18.92-16.5,29.4-1.89,4.82-2.88,9.62-7.52,12.71a2.83,2.83,0,0,0-1,3.59c1,1.58,2.35.2,3.57.07,5.28-.58,8-3.38,9.19-8.68,1-4.27,5.56-5.92,8.75-8.5q-1.95,8.49-3.91,17c-7.45-.77-10.61,5.87-13.39,10-5.21,7.78-10.19,15.77-15.63,23.43-.86,1.23-.6,3.55-3,3.54l-.39-29.84c.07-15.8.38-31.61.14-47.4C138.3,158,143.21,151,152,145.59c7.56-4.64,15.71-8.21,22.72-14,3.31-2.75,8.51-4,12.88-5.82Z" transform="translate(-31.91 -33.37)"/><path class="cls-4" d="M161.25,126.11c.69,4.06-.8,7.39-3.53,10.26-1.47,1.54-3.31,2.38-5.35,1.46-2.29-1-1.92-3.28-1.65-5.2.36-2.5,1.95-4.49,3.28-6.56C156.43,124.58,158.85,123.44,161.25,126.11Zm-4.21.94c-2.69,1-3.94,3.2-4.2,6-.13,1.45.48,3,2.14,2.52,2.79-.8,4.14-3.17,4.5-5.94C159.67,128.16,158.84,127.13,157,127.05Z" transform="translate(-31.91 -33.37)"/><path class="cls-18" d="M172.07,123c-.12.63-.22,1.28-.38,1.9a4.78,4.78,0,0,1-4.9,3.75c-2.73-.16-1.94-2.83-2.07-4.67.7-.87,1.35-1.79,2.11-2.61C169.67,118.38,171.42,119,172.07,123Z" transform="translate(-31.91 -33.37)"/><path class="cls-18" d="M465.65,303.12c-8.56-2.79-14.38-8.37-17.33-16.91-.22-.61-.76-1.18-.18-1.78s1.53-.37,2.28,0c2.69,1.29,5.42,2.33,6.35,5.78a7,7,0,0,0,5.45,5.32,1.18,1.18,0,0,0,1.42-1.06c.63-3.26-1.79-4.88-3.8-6.5-3.93-3.16-7.62-6.48-9.52-11.29-1.05-2.68-1.8-5.66.44-8,2.5-2.6,5.26-.83,7.79.37,4.13,1.95,7.86,4.44,10.1,8.57,1,1.83,2.9,4,1.36,5.88-1.26,1.5-3.19-1.07-5-.93-1.42-2.16-2.72-4.43-4.33-6.43-.74-.93-2.23-2-3.39-.69-1,1.1.28,2.14,1.06,2.85,1.93,1.75,4,3.36,6,5,2.48,2.65,5.06,5.29,6.34,8.74,1.48,4,2.25,8.07-2.06,11.08Z" transform="translate(-31.91 -33.37)"/><path class="cls-21" d="M482.86,297v11.93c.24,5.15-2.3,2.92-4.56,1.77a4.78,4.78,0,0,1-2.88-4.71c.06-4.29,0-8.58.26-12.86.1-1.58-1.06-4.57,1.11-4.51s5.18,1.35,5.82,4.44A27.16,27.16,0,0,1,482.86,297Z" transform="translate(-31.91 -33.37)"/><path class="cls-18" d="M476.08,280.11c3.95,1.37,8,2.4,6.13,8.36C478.82,286.68,474.26,286.08,476.08,280.11Z" transform="translate(-31.91 -33.37)"/><path class="cls-8" d="M465.65,303.12l3,0c0,.6,0,1.21,0,1.81l0,0C467.25,305,465.79,305.1,465.65,303.12Z" transform="translate(-31.91 -33.37)"/><path class="cls-5" d="M517.75,312.94c-.38-.65-.77-1.3-1.16-1.95,1.25-1.23,2.91-1.75,3.63,0C521,313,519,312.84,517.75,312.94Z" transform="translate(-31.91 -33.37)"/><path class="cls-7" d="M448.43,328c.07-.33.15-.66.23-1,.5.25,1.28.39,1.43.78.37.93-.52,1.17-1.19,1.45C448.74,328.79,448.58,328.37,448.43,328Z" transform="translate(-31.91 -33.37)"/><path class="cls-5" d="M472.24,337.23c-.28.11-.62.36-.81.28s-.24-.51-.35-.79c.28-.11.62-.37.82-.28S472.13,337,472.24,337.23Z" transform="translate(-31.91 -33.37)"/><path class="cls-7" d="M482.86,308.92v-3C485.57,306.94,483.12,307.93,482.86,308.92Z" transform="translate(-31.91 -33.37)"/><path class="cls-5" d="M543.18,292.7c-.11.27-.23.55-.35.82-.27-.12-.7-.18-.78-.37s.19-.54.31-.81Z" transform="translate(-31.91 -33.37)"/><path class="cls-5" d="M507.45,311.07c0-1.07,0-2.14,0-3.2C509,308.94,508.92,310,507.45,311.07Z" transform="translate(-31.91 -33.37)"/><path class="cls-7" d="M449.2,331.11l-.15-1.14.76.3Z" transform="translate(-31.91 -33.37)"/><path class="cls-13" d="M138.32,216.14l.39,29.84q0,12.5.1,25l0,5c-1.45,5.34-.11,10.68,0,16,0,1.32,0,2.65,0,4,0,1.68,0,3.36,0,5q-.17,19.5-.35,39c-3.12.19-2.85-2-2.86-4,0-9.83.47-19.69-.14-29.48-1.53-24.88-.62-49.77-.71-74.66,3.32-.8,1.38-3.47,1.85-5.26C137.6,223.14,135,219.18,138.32,216.14Z" transform="translate(-31.91 -33.37)"/><path class="cls-21" d="M417.79,501.15a.86.86,0,0,1-.18.76c-6.12.67-12.11-1.24-18.22-.93l-.06-5.94c4-5,6-11.06,9-16.54,1.53-2.74,2.68-5.71,5.35-7.64l5.12,4.69C417,484,417.69,492.6,417.79,501.15Z" transform="translate(-31.91 -33.37)"/><path class="cls-19" d="M448.29,166.3c-11.7-5.19-22.26-12.41-33.4-18.59-1.74-1-3.87-1.6-4.64-3.9,13,7.1,26.13,13.92,38.48,22.09C448.59,166,448.44,166.17,448.29,166.3Z" transform="translate(-31.91 -33.37)"/><path class="cls-15" d="M433.43,148.1l28.15,16.29-.87,1.45-28.14-16.3C432.86,149.06,433.15,148.58,433.43,148.1Z" transform="translate(-31.91 -33.37)"/><path class="cls-15" d="M452.51,183.23c2.76,2.23,6.43,3.2,9.34,6.76-4.74-1-7.61-3.94-11.19-5.37l-18.83-11.3.65-1.12Z" transform="translate(-31.91 -33.37)"/><path class="cls-4" d="M460.06,179.17l11.57,7.23-.58,1.09-12.39-6.7-1.63-.86-2.37-1.47-6.88-4.5C452.58,174.28,455.84,177.77,460.06,179.17Z" transform="translate(-31.91 -33.37)"/><path class="cls-19" d="M464.18,174.12l7.29,4.79-.45.92-9.4-4.85c-4.44-2.91-9.35-5.07-13.33-8.69a5.34,5.34,0,0,0,.44-.39Z" transform="translate(-31.91 -33.37)"/><path class="cls-15" d="M410.55,159.32l18,10.46-.66,1.15c-6.4-2.81-12.2-6.67-18.07-10.4C410.08,160.12,410.31,159.72,410.55,159.32Z" transform="translate(-31.91 -33.37)"/><path class="cls-19" d="M428.64,147.12,409.92,136.4l.75-1.29,18.67,10.8Z" transform="translate(-31.91 -33.37)"/><path class="cls-4" d="M422.89,158.73a33.69,33.69,0,0,1,10.91,6.09l-.46.48a33.27,33.27,0,0,1-10.84-6.16Z" transform="translate(-31.91 -33.37)"/><path class="cls-4" d="M422.5,159.14c-3-1.16-5.92-2.35-8.17-4.75.14-.19.29-.37.45-.55a20.29,20.29,0,0,1,8.11,4.89Z" transform="translate(-31.91 -33.37)"/><path class="cls-4" d="M433.8,164.82c2.65,1.08,5.31,2.14,6.94,4.78-2.64-1.14-5.38-2.07-7.39-4.3Z" transform="translate(-31.91 -33.37)"/><path class="cls-4" d="M414.33,154.39a5.79,5.79,0,0,1-4.46-3.31,8.55,8.55,0,0,1,4.91,2.76C414.62,154,414.47,154.2,414.33,154.39Z" transform="translate(-31.91 -33.37)"/><path class="cls-14" d="M454.66,178.46l2.37,1.47C455.91,180,455,179.75,454.66,178.46Z" transform="translate(-31.91 -33.37)"/><path class="cls-5" d="M577.26,375c.08.33.15.65.23,1a4.21,4.21,0,0,1-.47-.64C577,375.25,577.17,375.08,577.26,375Z" transform="translate(-31.91 -33.37)"/><path class="cls-21" d="M651.37,489.29c-.81-3.13-.13-6.67-2.62-9.33-1.82-4.7-.08-9.68-1.15-14.47-.48-2.17.79-3.43,3.12-3.43q17,0,33.94,0c2.74,0,3.48,1.81,3,4-.95,4.3,0,8.55.07,12.81-3.59,2.14-2.89,5.76-3.12,9.06a3.08,3.08,0,0,1-3.35,2.87q-13.82,0-27.61,0A2.26,2.26,0,0,1,651.37,489.29Z" transform="translate(-31.91 -33.37)"/><path class="cls-15" d="M685.75,509.85l-10.51-.1a13.77,13.77,0,0,1,.29-1.45c2.59-9.27,4.46-10.2,13.36-6.72a4,4,0,0,1,2.78,3.71,3.35,3.35,0,0,1-2.58,3.71C688,509.35,686.87,509.57,685.75,509.85Z" transform="translate(-31.91 -33.37)"/><path class="cls-15" d="M655.19,509.75l-8.42,1.17c-1-1.61-4-1.11-3.9-4.25C647.08,507.54,651.24,508.15,655.19,509.75Z" transform="translate(-31.91 -33.37)"/><path class="cls-21" d="M685.5,346c-4.42-5.5-8.31-11.2-8.06-18.73.24-6.81,5.08-9.84,11.17-6.74,5.78,2.94,8.84,8.3,11.71,13.78a63,63,0,0,1,1.07,6.36c.23,3.26-.43,6.41-3.29,8.38s-6,1.07-8.86-.61C688,347.67,686.75,346.8,685.5,346Zm.1-11.67c-3.06,1.23-2.57,3.42-.72,4.93a50.05,50.05,0,0,0,8.09,4.9c2,1.1,2.1-.33,2-1.85-.22-4.33-4.06-4.13-6.7-5.43,2-.3,4.71.57,5.26-2.43.68-3.63-1.06-6.42-3.84-8.6a3.23,3.23,0,0,0-3.71-.51c-1.36.75-1.29,2.13-1.41,3.48C684.43,330.76,686.72,332.23,685.6,334.32Z" transform="translate(-31.91 -33.37)"/><path class="cls-15" d="M708.8,342.71a54.34,54.34,0,0,1,12.53,7.71c-5-1.17-9-4.13-13.17-6.95C708.37,343.21,708.59,343,708.8,342.71Z" transform="translate(-31.91 -33.37)"/><path class="cls-15" d="M728.12,361.32a12.71,12.71,0,0,1-6.14-3.85,13.13,13.13,0,0,1,6.75,3.32C728.53,361,728.33,361.15,728.12,361.32Z" transform="translate(-31.91 -33.37)"/><path class="cls-15" d="M728.43,355.12a11.54,11.54,0,0,1-5.68-3.72c2.52.18,4.41,1.55,6.24,3C728.81,354.67,728.62,354.89,728.43,355.12Z" transform="translate(-31.91 -33.37)"/><path class="cls-15" d="M709.75,349.76a8.85,8.85,0,0,1,4.92,3.11l-.46.42a8.91,8.91,0,0,1-5.07-2.82C709.35,350.24,709.55,350,709.75,349.76Z" transform="translate(-31.91 -33.37)"/><path class="cls-15" d="M709.14,350.47c-1.66-.61-3.42-1.08-4.84-3.26a7.91,7.91,0,0,1,5.45,2.55C709.55,350,709.35,350.24,709.14,350.47Z" transform="translate(-31.91 -33.37)"/><path class="cls-15" d="M722.4,365.14c-2.17-.08-3.63-1.51-5.21-2.71.19-.24.38-.47.58-.7,1.85.71,3.78,1.28,4.84,3.19Z" transform="translate(-31.91 -33.37)"/><path class="cls-15" d="M728.73,360.79c1.37.46,2.79.85,3.79,2.78-2-.34-3.67-.21-4.4-2.25C728.33,361.15,728.53,361,728.73,360.79Z" transform="translate(-31.91 -33.37)"/><path class="cls-15" d="M725.44,346.12a11.27,11.27,0,0,1-5.1-2.92l.62-.63a11.38,11.38,0,0,1,5.08,2.86Q725.73,345.76,725.44,346.12Z" transform="translate(-31.91 -33.37)"/><path class="cls-15" d="M708.16,343.47c-1.31-.63-3.17-.57-3.4-2.77,1.87-.17,2.93,1,4,2C708.59,343,708.37,343.21,708.16,343.47Z" transform="translate(-31.91 -33.37)"/><path class="cls-15" d="M729,354.44c1.19.65,3,.54,3.26,2.56-1.76.18-2.77-.87-3.82-1.88C728.62,354.89,728.81,354.67,729,354.44Z" transform="translate(-31.91 -33.37)"/><path class="cls-15" d="M710.2,358.35a7.05,7.05,0,0,1-3.87-2.12c.22-.24.44-.47.65-.71a7.26,7.26,0,0,1,3.84,2.16Z" transform="translate(-31.91 -33.37)"/><path class="cls-15" d="M717.27,341.26c-.93-.16-1.93-.22-2.38-1.25a1,1,0,0,1,.19-.79,2.58,2.58,0,0,1,2.58,1.65Z" transform="translate(-31.91 -33.37)"/><path class="cls-15" d="M716,353.54c.92.41,2.91.37,2,1.82-.59,1-1.86-.49-2.66-1.22C715.59,354,715.79,353.74,716,353.54Z" transform="translate(-31.91 -33.37)"/><path class="cls-15" d="M717.19,362.43c-1-.44-2.26-.51-2.44-2,1.54-.39,2.22.6,3,1.34C717.57,362,717.38,362.19,717.19,362.43Z" transform="translate(-31.91 -33.37)"/><path class="cls-15" d="M722.61,364.92c1.4-.08,2.33.8,3.31,1.61l-.5.6a4,4,0,0,1-3-2Z" transform="translate(-31.91 -33.37)"/><path class="cls-15" d="M710.82,357.68c.92.37,2.7.62,1.91,1.78s-1.69-.58-2.53-1.11Z" transform="translate(-31.91 -33.37)"/><path class="cls-15" d="M706.33,356.23c-.75-.24-2-.66-1.51-1.39.84-1.24,1.48.22,2.16.68C706.77,355.76,706.55,356,706.33,356.23Z" transform="translate(-31.91 -33.37)"/><path class="cls-15" d="M725.92,366.53c.41.33,1.54.28,1.07,1.06-.36.59-1.16.16-1.57-.46Z" transform="translate(-31.91 -33.37)"/><path class="cls-15" d="M719.15,342.38l-1.87-1.12.38-.39c.8.07,1.61.1,2.1.9Z" transform="translate(-31.91 -33.37)"/><path class="cls-15" d="M726,345.43l1.27,1.14c-.85.79-1.34.07-1.87-.45Q725.72,345.76,726,345.43Z" transform="translate(-31.91 -33.37)"/><path class="cls-15" d="M715.38,354.14l-1.17-.85.46-.42,1.31.67C715.79,353.74,715.59,354,715.38,354.14Z" transform="translate(-31.91 -33.37)"/><path class="cls-15" d="M720.34,343.2l-1.19-.82.61-.61,1.2.8Z" transform="translate(-31.91 -33.37)"/><path class="cls-18" d="M57.53,257.71c-3.06.45-5.11-1.58-7.62-2.65.82-1.46,2-.88,2.83-1.29,2.45.67,3.88-.17,5.11-2.49,3.14-6,6.4-11.89,11.66-16.55Q63.51,246.22,57.53,257.71Z" transform="translate(-31.91 -33.37)"/><path class="cls-14" d="M522.14,553.52a6,6,0,0,1-1.48,3.58c-3.5,4.78-2.51,8.14,2.85,9.61-9.43,7.47-20.5,8.29-31.86,7.74a56.28,56.28,0,0,1-7.22-1.27c.06-1.81.11-3.61.18-5.42.19-4.62-4-4.87-6.51-5.14-2.73-.29-1,3-1.44,4.69a15.14,15.14,0,0,0-.08,3.44c-1.53,1-2.8,2.64-5,2.14l-1.74-4-.12-1c.84-1.9,1.6-3.84,2.56-5.67.38-.73.56-1-.31-1.36-4-1.77-2.08-3.9-.31-6,5.35,3,10.38,6.88,17,6.64l.44.17.47,0,2,.15C502.81,562.83,513.26,561.08,522.14,553.52Z" transform="translate(-31.91 -33.37)"/><path class="cls-12" d="M469.85,568.9l1.74,4-1.84,1C469.78,572.23,469.81,570.57,469.85,568.9Z" transform="translate(-31.91 -33.37)"/><path class="cls-18" d="M94.94,423.69c-1.28-1.85-3.2-2.87-5.1-3.91a15.86,15.86,0,0,1,1.92-3.46c4.9-5.24,4.5-10.69.88-16.34,2.49-4.14,7.27-3.89,11-5.73a55.71,55.71,0,0,1,7.24-.82c4.77.05,7.17-3.21,9.72-6.39,0,6.81,0,13.62.19,20.42.07,2.5-.53,3.62-3.25,3.33a6.93,6.93,0,0,0-5.83,2.28c-2.62,1.54-2.83,4.49-4,6.87H105c1.11-8.06,2-16.09-1.28-23.86a66.39,66.39,0,0,1-.27,22.93c-.44,2.52-1.8,5-.62,7.63l-.1,1.26c-1.68,1-3.28,2.64-4.61-.61C97.52,425.89,96,424.88,94.94,423.69Z" transform="translate(-31.91 -33.37)"/><path class="cls-18" d="M88.54,401a16.08,16.08,0,0,1-2.29,9.42c-3.15-3.5-.83-7-.41-10.38Z" transform="translate(-31.91 -33.37)"/><path class="cls-12" d="M476.58,570.75a15.14,15.14,0,0,1,.08-3.44c.42-1.67-1.29-5,1.44-4.69,2.49.27,6.7.52,6.51,5.14-.07,1.81-.12,3.61-.18,5.42A21.07,21.07,0,0,1,476.58,570.75Z" transform="translate(-31.91 -33.37)"/><path class="cls-21" d="M120.77,417.9c-3.64,1.93-6,4.74-6.08,9-1.89,0-2.71,2.63-4.87,2-.61-4.93-.95-9.83,2.05-14.25a12.34,12.34,0,0,1,1.21-.83C118.84,410.67,120.53,411.57,120.77,417.9Z" transform="translate(-31.91 -33.37)"/><path class="cls-9" d="M111.87,414.67c-3,4.42-2.66,9.32-2.05,14.25a5.11,5.11,0,0,1-1.81,3.43q-.2-6.19-.37-12.41c1.19-2.38,1.4-5.33,4-6.87Z" transform="translate(-31.91 -33.37)"/><path class="cls-4" d="M244.67,385c-.46-5.34,3.12-9.09,5.71-13,8.26-12.38,15.33-25.53,23.79-37.74,6.57-9.48,11.91-19.73,18.85-28.9,1.59-2.1.43-6.17,4.48-6.43q.15,19,.29,38c0,.66-.09,1.33-.14,2-3.24,13.35-10.9,23.16-23.35,29.16a32.78,32.78,0,0,0-3.69,2.45l-2.05,1.34v-.09Z" transform="translate(-31.91 -33.37)"/><path class="cls-18" d="M120.66,377c-1.36,4.26-5,6.28-8.42,8.5a2.08,2.08,0,0,1-2.73,0c-1.12-1.27.19-2.13,1-2.8,3-2.6,6.72-3.91,10.17-5.71Z" transform="translate(-31.91 -33.37)"/><path class="cls-14" d="M256.43,522.68c7.31-5.63,7.25-6.26-.94-10.53,4.14-.87,7.55,0,10.23,3.3.94,1.15,1.39,2.56.21,3.54C263.27,521.2,260.59,523.67,256.43,522.68Z" transform="translate(-31.91 -33.37)"/><path class="cls-12" d="M470.07,170.36l-.22-.33.5-.27c0,.14.09.29,0,.4S470.18,170.3,470.07,170.36Z" transform="translate(-31.91 -33.37)"/><path class="cls-21" d="M72.71,432l2.11-3.86c1.2,0,2.55-1.87,3.41-.5,1,1.57-1,2.35-2,3.29A4.1,4.1,0,0,1,72.71,432Z" transform="translate(-31.91 -33.37)"/><path class="cls-21" d="M70.69,433a2.11,2.11,0,0,1,2-1C72.38,433,71.57,433,70.69,433Z" transform="translate(-31.91 -33.37)"/><path class="cls-18" d="M645.57,222c-9.79-6-19.49-12.14-30-16.94-2.34-2.42-5.5-3.63-8.16-5.56-1.87-1.35-3.35-3.38-1.93-5.46s3.28.09,4.65.84c7.84,4.34,15.58,8.84,23.35,13.29l20.11,11.55c1.33,1,2.62,2.05,3,3.77.24,1.12.43,2.42-.63,3.19s-1.86-.07-2.72-.55C650.7,224.74,648.13,223.37,645.57,222Z" transform="translate(-31.91 -33.37)"/><path class="cls-18" d="M659.48,214c-.32-3.3.94-4.43,4.09-3,1.84,1.83,5,2.23,5.84,5.13.33,1.1.65,2.35-.26,3.31-1.08,1.13-2.15.28-3.12-.29C663.61,217.75,660.91,216.68,659.48,214Z" transform="translate(-31.91 -33.37)"/><path class="cls-18" d="M669.61,232c0,1.07-.2,2-1.44,2.21-2.22.45-8.56-4.67-8.64-7,0-1,0-2,1.17-2.4C663,224,669.65,229.37,669.61,232Z" transform="translate(-31.91 -33.37)"/><path class="cls-19" d="M522.14,553.52c-8.88,7.56-19.33,9.31-30.54,8.25-.54-8,1.47-16,.08-24.07,12.65-1.13,24.14,1.08,32.85,11.34C524.64,551,523.14,552.13,522.14,553.52Z" transform="translate(-31.91 -33.37)"/><path class="cls-18" d="M491.68,537.7c1.39,8-.62,16-.08,24.07l-2-.15-.91-.12c-6.63.24-11.66-3.61-17-6.64-4.51-5.64-4.33-6.91,1.54-11.37C478.68,539.34,485,538.08,491.68,537.7Z" transform="translate(-31.91 -33.37)"/><path class="cls-14" d="M463.59,552.33c2.08,2.48,4.42,3,3.52,5.38-.39,1-1.46,1.19-2.54.66C462,557.07,464,555.27,463.59,552.33Z" transform="translate(-31.91 -33.37)"/><path class="cls-17" d="M103,468l1.56,0,.3,2c-.07,2.25-.15,4.51-.22,6.77h-1.83Q102.88,472.31,103,468Z" transform="translate(-31.91 -33.37)"/><path class="cls-18" d="M104.6,476.68c.07-2.26.15-4.52.22-6.77L107,470c-.33,2.25-.65,4.49-1,6.74Z" transform="translate(-31.91 -33.37)"/><path class="cls-18" d="M604.68,180c2.79-2.79,4.54,1.14,6.91,1.08a255.71,255.71,0,0,0,22.67,13l17,10.2a28.39,28.39,0,0,1,3.36,2.12c1.82,1.48,3.1,3.61,1.56,5.61-1.39,1.78-2.94-.38-4.24-1.08-5.12-2.75-10.17-5.63-15.24-8.47-9.84-5.75-19.35-12.07-29.79-16.74l-.17.18c0-1.5-1.13-2.36-2-3.32a.34.34,0,0,0,0-.49Zm9.92,6-1-.78-.33.55,1.29.24c.95,2.68,3.25,3.06,5.59,3.37A8.5,8.5,0,0,0,614.6,186Z" transform="translate(-31.91 -33.37)"/><path class="cls-13" d="M654.6,218a1.57,1.57,0,0,1-.54-2.41c.07-.11.37-.2.44-.14.94.81-.16,1.71.08,2.56Z" transform="translate(-31.91 -33.37)"/><path class="cls-8" d="M640.59,195l.42.23-.42-.23Z" transform="translate(-31.91 -33.37)"/><path class="cls-9" d="M268.56,371.9l2.05-1.34C270.37,371.68,269.53,371.88,268.56,371.9Z" transform="translate(-31.91 -33.37)"/><path class="cls-5" d="M297.65,339c.05-.66.1-1.33.14-2C298.65,337.69,298.58,338.35,297.65,339Z" transform="translate(-31.91 -33.37)"/><path class="cls-8" d="M604.69,182.56c.92,1,2,1.82,2,3.32C604.26,185.88,604.66,184.11,604.69,182.56Z" transform="translate(-31.91 -33.37)"/><path class="cls-8" d="M604.68,180l0,2.12C603.62,181.38,603.56,180.67,604.68,180Z" transform="translate(-31.91 -33.37)"/><path class="cls-21" d="M107,470l-2.14-.09-.3-2q.24-9,.47-18c2.52-1.77,2.69-3.45-.2-5-.52-5-4.39-9.59-2-15,.13-.09.37-.2.36-.26a4.06,4.06,0,0,0-.28-.73l-.13-1c0-.42.06-.84.1-1.26a.74.74,0,0,1,.6.2c1.67-.8,1.19-2.24,1-3.58.17-1.1.35-2.21.52-3.32h2.67q.18,6.21.37,12.41c.38,2.82,2.47,5.38.82,8.53-.59,1.13.68,2,2,2a5.55,5.55,0,0,0-1.08,4.08C110.57,454.87,109,462.47,107,470Z" transform="translate(-31.91 -33.37)"/><path class="cls-21" d="M111.88,448.92c-.17-2.16-.33-4.31-.5-6.46.31-.69.6-2.17,1.12-1.83,2,1.35,1.43,3.91,2,5.92S113.53,449,111.88,448.92Z" transform="translate(-31.91 -33.37)"/><path class="cls-21" d="M113.55,434.19c0,1.17-.44,2.11-1.51,2.27s-1.28-.79-1.27-1.64-.35-2.17,1-2.4S113.35,433.24,113.55,434.19Z" transform="translate(-31.91 -33.37)"/><path class="cls-18" d="M296.93,164a5.42,5.42,0,0,0-4.18,1.23c-1.43,1.18-2.86.53-4.09-.42-1.51-1.17-.81-2.59-.4-4.07,1.28-4.6,3.92-6.54,8.66-4.81Q296.94,160,296.93,164Z" transform="translate(-31.91 -33.37)"/><path class="cls-19" d="M297.1,134a14.08,14.08,0,0,1-5-3c-3.44-2.83-4.63-5.62-.31-8.56,1.88-1.28,1.46-5.2,5.09-4.4l.06,2.79c-2.85,3.79-3.05,7.51.31,11.12Z" transform="translate(-31.91 -33.37)"/><path class="cls-5" d="M298.54,186.1c-2.59-1.79-1.24-4.46-1.28-6.68-.07-3.74-.59-7.53.4-11.24C299.77,174.06,298.2,180.13,298.54,186.1Z" transform="translate(-31.91 -33.37)"/><path class="cls-18" d="M297.23,132c-3.36-3.61-3.16-7.33-.31-11.12C298,124.52,297.55,128.24,297.23,132Z" transform="translate(-31.91 -33.37)"/><path class="cls-18" d="M104.79,444.93c2.89,1.55,2.72,3.23.2,5C104.92,448.26,104.86,446.6,104.79,444.93Z" transform="translate(-31.91 -33.37)"/><path class="cls-18" d="M102.83,428.94a4.06,4.06,0,0,1,.28.73c0,.06-.23.17-.36.26Z" transform="translate(-31.91 -33.37)"/><path class="cls-21" d="M718.67,286.89a4.89,4.89,0,0,1,.05-6.28c2.55-1.13,4.68-.66,5.66,2,.92,2.53-.6,4.05-2.86,4.94a.66.66,0,0,0-.87.06Z" transform="translate(-31.91 -33.37)"/><path class="cls-7" d="M720.65,287.65a.66.66,0,0,1,.87-.06l-.42.21Z" transform="translate(-31.91 -33.37)"/><path class="cls-18" d="M90.57,171.14c2,2.59,2,4.93-.88,6.9-2.62,0-5.27-.37-5-3.79C85,170.47,87.85,170.77,90.57,171.14Z" transform="translate(-31.91 -33.37)"/><path class="cls-18" d="M373.63,302l2.76,3.25-3.72,1.8c-2.22.22-3.55-.2-2.51-2.91C370.82,302.4,370.61,299.68,373.63,302Z" transform="translate(-31.91 -33.37)"/><path class="cls-22" d="M219.64,142.47c15.53-4.59,27,2.58,30.08,18.45,1.61,8.25.35,16.19-1.27,24.18-.33,1.62-.69,3.24-1,4.85-4.64,12-10,23.57-18.85,33.12-8.72,9.37-18.2,17.77-31.37,19.9-13.86,2.24-21.67-5-25.13-16.38-.38-1.25-.79-2.5-1.19-3.74,0-1,0-1.95-.05-2.93,1.1.76,1.63.33,2.28-.75,4.38-7.24,8.73-14.51,13.37-21.59,2.4-3.66,3.8-8.09,7.73-10.66.12.65.3,1.29.36,1.94.86,10.17,6.93,13.65,15.5,8.32,9.63-6,14.71-15.26,15.35-26.42.5-8.71-5.09-12.38-13.64-9.91a18.05,18.05,0,0,1-2,.34c-.22-1.26.56-2.11,1.11-3.12C213.78,152.84,218.1,148.43,219.64,142.47Zm-28,77.52c-.09,5.81,1.17,7,5.19,4.77C206,219.6,215,214.38,224,209c5.3-3.17,7-8.51,5-14.23-.86-2.44-2.07-4.72-4.78-5.33s-3.6,1.87-5,3.41c-1.12,1.23-2.14,2.56-3.29,3.76-4,4.16-8.35,7.63-14.73,6.56-2.33-.39-3.86,1.08-4.9,2.81C193.73,210.29,191.5,214.76,191.63,220Z" transform="translate(-31.91 -33.37)"/><path class="cls-16" d="M260.66,246l-64.9,37.32c-1.28.74-2.5,1.65-4.08,1.69,1-3.47,2.16-6.75,6-8.09.95-.33,2.1-1.3,1.41-2.1-2-2.26.85-3.92.41-5.89,7-5.69,15.33-9.21,23-13.8,11.55-6.9,23.32-13.44,35-20.11,1.92-1.1,4-3.41,6.16-1,1.85,2,1.31,4.77.26,7.07A34.24,34.24,0,0,1,260.66,246Z" transform="translate(-31.91 -33.37)"/><path class="cls-4" d="M170.82,219.92c0,1,0,2,.05,2.93-10.26,12.53-16.81,27.37-25.42,40.92-.84,1.31-1,2.57.3,3.51,1.53,1.11,2.4-.36,3.32-1.21,1.23-1.15,2.36-2.47,4.29-1.92,1.5.44,1.94,1.78,2.16,3.08.26,1.48,0,2.78-2.06,2.14-5.11-1.57-9.63,2.26-14.65,1.61q0-12.5-.1-25c2.36,0,2.1-2.31,3-3.54,5.44-7.66,10.42-15.65,15.63-23.43,2.78-4.15,5.94-10.79,13.39-10C171.1,212.63,169.39,216.3,170.82,219.92Z" transform="translate(-31.91 -33.37)"/><path class="cls-3" d="M199.53,268.91c.44,2-2.37,3.63-.41,5.89.69.8-.46,1.77-1.41,2.1-3.87,1.34-5.06,4.62-6,8.09v0a1.79,1.79,0,0,0-2,1.17l-3,2.83c-6.18,2.43-11.24,6.83-17.16,9.73-.14.07-.24.24-.39.3-3.06,1.13-5.88,5.56-9.38.95-1.86-2.44.2-8.42,3.59-10.78a63.8,63.8,0,0,1,8-5c8.32-4.11,16-9.33,24-14A7.73,7.73,0,0,1,199.53,268.91Z" transform="translate(-31.91 -33.37)"/><path class="cls-16" d="M270.59,233.86a10.35,10.35,0,0,1,4.7-9.08c3-2.11,6.2-3.86,9.35-5.72,1.45-.85,3-1.56,4.68-.52s1.36,2.88,1.38,4.51c0,2.49-1.17,4.41-2.77,6.22-3.52,4-8.47,5.78-12.94,8.19C271.87,239.15,270.57,236.67,270.59,233.86Z" transform="translate(-31.91 -33.37)"/><path class="cls-16" d="M272.67,267c-3.26-.46-3.38-2.81-2.77-5.15.69-2.66,1.83-5.2,2.77-7.78,4.59-.58,7.84-4,11.88-5.72,1.53-.66,2.7-2,4.33-.41l-8,14.12C278.71,264.67,276.24,266.74,272.67,267Z" transform="translate(-31.91 -33.37)"/><path class="cls-4" d="M138.82,292c-.09-5.34-1.43-10.68,0-16,4.37.19,6,4.22,9,6.41,1.05.78,1.75,2,2.75,2.85a5.39,5.39,0,0,1-1,9.18c-.77.41-1.57.66-2.27,0s-.44-1.5-.18-2.31c1.24-3.8.87-7.14-2.56-9.76-1.4-1.07-2.93-2.17-4.33-.58-1.23,1.4-.21,2.7,1.19,3.66,1.61,1.1,2.73,2.58,2,4.64C142.67,292.33,140.61,291.9,138.82,292Z" transform="translate(-31.91 -33.37)"/><path class="cls-3" d="M280.86,262.05l8-14.12c3.5,3.23,2,6.5-.24,9.45C286.75,259.9,284.38,262,280.86,262.05Z" transform="translate(-31.91 -33.37)"/><path class="cls-4" d="M256.21,345a6.59,6.59,0,0,1-3.46-5c-.12-1.41.59-3.08,2.06-2.61,2.14.68,4.14,2.31,4.42,4.7C259.41,343.62,257.7,344.37,256.21,345Z" transform="translate(-31.91 -33.37)"/><path class="cls-4" d="M281.51,319.08c0,1.73-.83,2.79-2.37,2.71-2.26-.13-2.77-2.14-3.24-3.88-.32-1.19.5-1.86,1.69-1.86C279.72,316.05,280.87,317.33,281.51,319.08Z" transform="translate(-31.91 -33.37)"/><path class="cls-4" d="M138.9,301c0-1.67,0-3.35,0-5,.81,0,1.62,0,2.43,0,1.34.12,3.29-.43,3.13,1.89-.11,1.45-.79,2.86-2.6,3C140.85,301,139.88,301,138.9,301Z" transform="translate(-31.91 -33.37)"/><path class="cls-16" d="M189.65,286.14a1.79,1.79,0,0,1,2-1.17C191.28,285.84,190.46,286,189.65,286.14Z" transform="translate(-31.91 -33.37)"/><path class="cls-4" d="M197.35,305.61c.23-2.66.61-4.74,3.36-5.08,1.7-.21,1.67.49,1.29,2-.56,2.2-.11,4.82-3.6,4.84C196.12,307.36,197.18,306.14,197.35,305.61Z" transform="translate(-31.91 -33.37)"/><path class="cls-4" d="M212.39,294.59c-.63,2.91-.25,5.92-3.54,6.83-.42.11-1.89.64-1.85-1.32C207.07,296.64,208.79,295.16,212.39,294.59Z" transform="translate(-31.91 -33.37)"/><path class="cls-4" d="M189.42,313.38c-2.46-2.1-2.35-4.21-.52-6.41,1-1.18,1.73-.45,2.36.36C193.58,310.29,190.75,311.55,189.42,313.38Z" transform="translate(-31.91 -33.37)"/><path class="cls-4" d="M177.69,318c.15-1.06-1.08-2.27.17-3.17,1.06-.76.71-3.46,2.92-2.42,1.21.57,1.49,3.22,1.13,3.29-1.71.35-1.24,4.8-4.24,2.28Z" transform="translate(-31.91 -33.37)"/><path class="cls-4" d="M177.67,318l-.4.41c0-.09,0-.21.08-.25a1.16,1.16,0,0,1,.34-.14Z" transform="translate(-31.91 -33.37)"/><path class="cls-3" d="M216.35,325.75c-1.17,3.13-4.19,4.67-6.72,5.76-3.24,1.4-1.36-2-1.49-3.05-.54-4.11.74-5,4.59-3.51a5,5,0,0,1,.64.36c-.33-3.23,2.47-2.78,4.21-3.65,1.16-.58,2.47-2,3.51-1.16,1.33,1.12.73,3.11.36,4.71a4.17,4.17,0,0,1-3.32,3.39C215.86,329,217.4,326.44,216.35,325.75Z" transform="translate(-31.91 -33.37)"/><path class="cls-3" d="M237.61,313.05c-.31.55-.65,1.1-.94,1.66-1,2-2.65,4.4-4.79,2.83-1.95-1.41-1.81-4.26.34-6.26,2,.84.44,3,1.88,3.94,1.24-1.48.33-3.24.84-4.72.69-2,1.67-1.78,2.69-.2C237.63,311.21,237.62,312.13,237.61,313.05Z" transform="translate(-31.91 -33.37)"/><path class="cls-18" d="M237.61,313.05c0-.92,0-1.84,0-2.75,1.58-.66,2.7-2.67,4.71-1.81.4.17.49,1.53.39,2.29-.3,2.34-2.34,3.72-3.91,4.73C237.59,316.3,237.84,314.05,237.61,313.05Z" transform="translate(-31.91 -33.37)"/><path class="cls-22" d="M493.64,308.77c.12-1.69.11-4,2.34-3.59,3.2.56,3.6,3.52,3.66,6.25,0,1.35.4,3.66-1.82,3.25C494.87,314.14,493.64,311.72,493.64,308.77Z" transform="translate(-31.91 -33.37)"/><path class="cls-22" d="M590.71,364.12c-.35,1.57.52,4.27-1.8,4-3.35-.41-3.86-3.69-4.17-6.52-.18-1.57-.39-3.88,2.14-3.51C590.22,358.57,590.43,361.52,590.71,364.12Z" transform="translate(-31.91 -33.37)"/><path class="cls-20" d="M170.82,219.92c-1.43-3.62.28-7.29-.13-10.93q2-8.51,3.91-17c.68-4.88,3.48-8.89,5.86-12.91,7.69-13,16.47-25.17,30-32.84a31.24,31.24,0,0,1,9.13-3.77c-1.54,6-5.86,10.37-8.71,15.6-.55,1-1.33,1.86-1.11,3.12-8.37,6.66-14,15-15.62,25.73-3.93,2.57-5.33,7-7.73,10.66-4.64,7.08-9,14.35-13.37,21.59C172.45,220.25,171.92,220.68,170.82,219.92Z" transform="translate(-31.91 -33.37)"/><path class="cls-19" d="M295.54,139.62c-.88,1.82-2.7,1.84-4.18,2.22-2,.53-3.53-.64-4.32-2.42-.67-1.53-.84-3.35.54-4.57,1.66-1.48,2.83.19,3.57,1.26C292.28,137.76,294.92,137.42,295.54,139.62Z" transform="translate(-31.91 -33.37)"/><path class="cls-5" d="M157,127.05c1.8.08,2.63,1.11,2.44,2.58-.36,2.77-1.71,5.14-4.5,5.94-1.66.48-2.27-1.07-2.14-2.52C153.1,130.25,154.35,128.06,157,127.05Z" transform="translate(-31.91 -33.37)"/><path class="cls-7" d="M464.32,283.32c-2-1.67-4.05-3.28-6-5-.78-.71-2-1.75-1.06-2.85,1.16-1.3,2.65-.24,3.39.69,1.61,2,2.91,4.27,4.33,6.43Z" transform="translate(-31.91 -33.37)"/><path class="cls-12" d="M685.6,334.32c1.12-2.09-1.17-3.56-1-5.51.12-1.35,0-2.73,1.41-3.48a3.23,3.23,0,0,1,3.71.51c2.78,2.18,4.52,5,3.84,8.6-.55,3-3.26,2.13-5.26,2.43Z" transform="translate(-31.91 -33.37)"/><path class="cls-14" d="M685.6,334.32l2.7,2.55c2.64,1.3,6.48,1.1,6.7,5.43.07,1.52,0,2.95-2,1.85a50.05,50.05,0,0,1-8.09-4.9C683,337.74,682.54,335.55,685.6,334.32Z" transform="translate(-31.91 -33.37)"/><path class="cls-19" d="M488.68,561.5l.91.12-.47,0Z" transform="translate(-31.91 -33.37)"/><path class="cls-10" d="M103.4,426.84a.74.74,0,0,0-.6-.2c-1.18-2.66.18-5.11.62-7.63a66.39,66.39,0,0,0,.27-22.93c3.23,7.77,2.39,15.8,1.28,23.86-.17,1.11-.35,2.22-.52,3.33C103.11,424.17,103.31,425.52,103.4,426.84Z" transform="translate(-31.91 -33.37)"/><path class="cls-16" d="M614.6,186a8.5,8.5,0,0,1,5.58,3.38c-2.34-.31-4.64-.69-5.59-3.37Z" transform="translate(-31.91 -33.37)"/><path class="cls-16" d="M614.59,186l-1.29-.24.33-.55,1,.78Z" transform="translate(-31.91 -33.37)"/><path class="cls-18" d="M103.4,426.84c-.09-1.32-.29-2.67,1-3.57C104.59,424.6,105.07,426,103.4,426.84Z" transform="translate(-31.91 -33.37)"/><path class="cls-21" d="M194.2,186.92c1.64-10.74,7.25-19.07,15.62-25.73a18.05,18.05,0,0,0,2-.34c8.55-2.47,14.14,1.2,13.64,9.91-.64,11.16-5.72,20.42-15.35,26.42-8.57,5.33-14.64,1.85-15.5-8.32C194.5,188.21,194.32,187.57,194.2,186.92Z" transform="translate(-31.91 -33.37)"/><path class="cls-21" d="M191.62,220c-.12-5.23,2.11-9.7,4.7-14,1-1.73,2.57-3.2,4.9-2.81,6.38,1.07,10.71-2.4,14.73-6.56,1.15-1.2,2.17-2.53,3.29-3.76,1.4-1.54,2.34-4,5-3.41s3.92,2.89,4.78,5.33c2,5.72.32,11.06-5,14.23-9,5.37-18.09,10.59-27.22,15.75C192.8,227,191.54,225.8,191.62,220Z" transform="translate(-31.91 -33.37)"/></g></svg>